<?xml version="1.0" encoding="utf-8"?>
<!-- Generator: Adobe Illustrator 16.0.0, SVG Export Plug-In . SVG Version: 6.00 Build 0)  -->
<!DOCTYPE svg PUBLIC "-//W3C//DTD SVG 1.1//EN" "http://www.w3.org/Graphics/SVG/1.1/DTD/svg11.dtd">
<svg version="1.1" id="Layer_1" xmlns="http://www.w3.org/2000/svg" xmlns:xlink="http://www.w3.org/1999/xlink" x="0px" y="0px"
	 width="150px" height="150px" viewBox="0 0 150 150" enable-background="new 0 0 150 150" xml:space="preserve">
<g>
	<path fill="#ECAC38" d="M194.163,21.502c0-37.469,30.371-67.838,67.836-67.838c37.464,0,67.838,30.369,67.838,67.838
		c0,37.462-30.374,67.834-67.838,67.834C224.534,89.336,194.163,58.964,194.163,21.502L194.163,21.502z M194.163,21.502"/>
	<path fill="#FFCA61" d="M296.465-3.912c-9.517-9.516-24.946-9.516-34.461,0h-0.009c-9.516-9.516-24.944-9.516-34.461,0
		c-9.516,9.516-8.143,23.746,0,34.459c8.627,11.347,24.373,30.064,34.461,30.064h0.009c10.089,0,25.835-18.718,34.461-30.063
		C304.608,19.836,305.979,5.604,296.465-3.912L296.465-3.912z M296.465-3.912"/>
</g>
<path fill="#ECAC38" d="M75,7.616C37.786,7.616,7.616,37.786,7.616,75c0,37.215,30.169,67.384,67.384,67.384
	c37.215,0,67.384-30.169,67.384-67.384C142.343,37.803,112.197,7.658,75,7.616L75,7.616z M75,137.892
	c-34.734,0-62.892-28.157-62.892-62.892c0-34.734,28.158-62.892,62.892-62.892c34.734,0,62.893,28.158,62.893,62.892
	C137.852,109.717,109.717,137.852,75,137.892L75,137.892z M75,137.892"/>
<path fill="#FFCA61" d="M70.508,41.308H43.554c-1.24,0-2.246,1.006-2.246,2.246v26.954c0,1.24,1.006,2.246,2.246,2.246h26.954
	c1.24,0,2.246-1.006,2.246-2.246V43.554C72.754,42.314,71.748,41.308,70.508,41.308L70.508,41.308z M68.262,68.262H45.801V45.801
	h22.461V68.262z M68.262,68.262"/>
<path fill="#FFCA61" d="M52.539,63.77h8.984c1.24,0,2.246-1.006,2.246-2.246v-8.984c0-1.241-1.006-2.247-2.246-2.247h-8.984
	c-1.241,0-2.247,1.006-2.247,2.247v8.984C50.292,62.764,51.298,63.77,52.539,63.77L52.539,63.77z M54.785,54.785h4.492v4.492h-4.492
	V54.785z M54.785,54.785"/>
<path fill="#FFCA61" d="M70.508,77.246H43.554c-1.24,0-2.246,1.006-2.246,2.246v26.953c0,1.241,1.006,2.246,2.246,2.246h26.954
	c1.24,0,2.246-1.005,2.246-2.246V79.492C72.754,78.252,71.748,77.246,70.508,77.246L70.508,77.246z M68.262,104.199H45.801V81.738
	h22.461V104.199z M68.262,104.199"/>
<path fill="#FFCA61" d="M52.539,99.707h8.984c1.24,0,2.246-1.006,2.246-2.246v-8.984c0-1.24-1.006-2.246-2.246-2.246h-8.984
	c-1.241,0-2.247,1.006-2.247,2.246v8.984C50.292,98.701,51.298,99.707,52.539,99.707L52.539,99.707z M54.785,90.723h4.492v4.492
	h-4.492V90.723z M54.785,90.723"/>
<path fill="#FFCA61" d="M106.445,41.308H79.492c-1.24,0-2.246,1.006-2.246,2.246v17.969h4.492V45.801h22.461v22.461H81.738v-2.246
	h-4.492v4.492c0,1.24,1.006,2.246,2.246,2.246h26.953c1.241,0,2.246-1.006,2.246-2.246V43.554
	C108.691,42.314,107.687,41.308,106.445,41.308L106.445,41.308z M106.445,41.308"/>
<path fill="#FFCA61" d="M97.461,63.77c1.24,0,2.246-1.006,2.246-2.246v-8.984c0-1.241-1.006-2.247-2.246-2.247h-8.984
	c-1.24,0-2.246,1.006-2.246,2.247v8.984c0,1.24,1.006,2.246,2.246,2.246H97.461z M90.723,54.785h4.492v4.492h-4.492V54.785z
	 M90.723,54.785"/>
<path fill="#FFCA61" d="M81.738,81.738h6.738v-4.492h-8.984c-1.24,0-2.246,1.006-2.246,2.246v8.984h4.492V81.738z M81.738,81.738"/>
<path fill="#FFCA61" d="M92.969,90.723H79.492c-1.24,0-2.246,1.006-2.246,2.246v13.477c0,1.241,1.006,2.246,2.246,2.246h13.477
	c1.24,0,2.246-1.005,2.246-2.246V92.969C95.215,91.729,94.209,90.723,92.969,90.723L92.969,90.723z M90.723,104.199h-8.984v-8.984
	h8.984V104.199z M90.723,104.199"/>
<path fill="#FFCA61" d="M106.445,77.246H92.969v4.492h11.23v4.492h4.492v-6.738C108.691,78.252,107.687,77.246,106.445,77.246
	L106.445,77.246z M106.445,77.246"/>
<path fill="#FFCA61" d="M106.445,88.477h-6.738v4.492h4.492v11.23h-6.738v4.492h8.984c1.241,0,2.246-1.005,2.246-2.246V90.723
	C108.691,89.482,107.687,88.477,106.445,88.477L106.445,88.477z M106.445,88.477"/>
<rect x="86.23" y="83.984" fill="#FFCA61" width="11.23" height="4.492"/>
</svg>
