<?xml version="1.0" encoding="utf-8"?>
<!-- Generator: Adobe Illustrator 16.0.0, SVG Export Plug-In . SVG Version: 6.00 Build 0)  -->
<!DOCTYPE svg PUBLIC "-//W3C//DTD SVG 1.1//EN" "http://www.w3.org/Graphics/SVG/1.1/DTD/svg11.dtd">
<svg version="1.1" id="Layer_1" xmlns="http://www.w3.org/2000/svg" xmlns:xlink="http://www.w3.org/1999/xlink" x="0px" y="0px"
	 width="150px" height="150px" viewBox="0 0 150 150" enable-background="new 0 0 150 150" xml:space="preserve">
<rect x="24.585" y="19.336" fill="#EDAC39" width="16.227" height="37.21"/>
<rect x="24.585" y="19.336" fill="#FFCA60" width="16.227" height="12.796"/>
<path fill="#101010" d="M42.062,12.582H23.335c-1.785,0-3.231,1.447-3.231,3.232v5.551c0,1.785,1.446,3.229,3.231,3.229h18.727
	c1.787,0,3.232-1.444,3.232-3.229v-5.551C45.294,14.029,43.849,12.582,42.062,12.582L42.062,12.582z M42.062,12.582"/>
<path fill="#EDAC39" d="M28.663,56.544v73.108h92.558V56.544L74.942,23.929L28.663,56.544z M28.663,56.544"/>
<path fill="#101010" d="M126.925,119.629H22.957c-1.767,0-3.2,1.436-3.2,3.203v11.383c0,1.77,1.434,3.203,3.2,3.203h103.968
	c1.768,0,3.2-1.434,3.2-3.203v-11.383C130.125,121.064,128.692,119.629,126.925,119.629L126.925,119.629z M126.925,119.629"/>
<g>
	<defs>
		<rect id="SVGID_1_" x="16.483" y="12.582" width="117.033" height="124.836"/>
	</defs>
	<clipPath id="SVGID_2_">
		<use xlink:href="#SVGID_1_"  overflow="visible"/>
	</clipPath>
	<path clip-path="url(#SVGID_2_)" fill="#FFCA60" d="M28.663,56.544v18.044c1.566-0.307,3.052-0.943,4.377-1.889l41.902-29.901
		l41.899,29.903c1.324,0.943,2.812,1.58,4.379,1.887V56.546L74.942,23.929L28.663,56.544z M28.663,56.544"/>
	<path clip-path="url(#SVGID_2_)" fill="#101010" d="M131.863,52.6l-53.366-38.86c-2.12-1.542-4.992-1.542-7.11,0L18.02,52.6
		c-1.717,1.249-2.047,3.673-0.726,5.335l6.277,7.914c1.236,1.557,3.473,1.872,5.092,0.719l46.279-33.029l46.278,33.027
		c1.616,1.155,3.854,0.84,5.091-0.717l6.278-7.916C133.907,56.272,133.58,53.849,131.863,52.6L131.863,52.6z M131.863,52.6"/>
</g>
<path fill="#272728" d="M110.635,77.702H84.988c-0.438,0-0.791,2.768-0.791,6.176v21.944c0,3.41,0.354,6.175,0.791,6.175h25.646
	c0.436,0,0.789-2.765,0.789-6.175V83.878C111.424,80.47,111.07,77.702,110.635,77.702L110.635,77.702z M110.635,77.702"/>
</svg>
