<?xml version="1.0" encoding="utf-8"?>
	<!-- Generator: Adobe Illustrator 16.0.0, SVG Export Plug-In . SVG Version: 6.00 Build 0)  -->
	<!DOCTYPE svg PUBLIC "-//W3C//DTD SVG 1.1//EN" "http://www.w3.org/Graphics/SVG/1.1/DTD/svg11.dtd">
	<svg version="1.1" id="Layer_1" xmlns="http://www.w3.org/2000/svg" xmlns:xlink="http://www.w3.org/1999/xlink" x="0px" y="0px"
		 width="150px" height="150px" viewBox="0 0 150 150" enable-background="new 0 0 150 150" xml:space="preserve">
	<g>
		<path fill="#ECAC38" d="M7.163,75.002c0-37.469,30.371-67.838,67.836-67.838c37.464,0,67.838,30.369,67.838,67.838
			c0,37.462-30.374,67.834-67.838,67.834C37.534,142.836,7.163,112.464,7.163,75.002L7.163,75.002z M7.163,75.002"/>
		<path fill="#FFCA61" d="M109.465,49.588c-9.517-9.516-24.946-9.516-34.461,0h-0.009c-9.516-9.516-24.944-9.516-34.461,0
			c-9.516,9.516-8.143,23.746,0,34.459c8.627,11.347,24.373,30.064,34.461,30.064h0.009c10.089,0,25.835-18.718,34.461-30.063
			C117.608,73.336,118.979,59.104,109.465,49.588L109.465,49.588z M109.465,49.588"/>
	</g>
	</svg>
