<?xml version="1.0" encoding="utf-8"?>
<!-- Generator: Adobe Illustrator 16.0.0, SVG Export Plug-In . SVG Version: 6.00 Build 0)  -->
<!DOCTYPE svg PUBLIC "-//W3C//DTD SVG 1.1//EN" "http://www.w3.org/Graphics/SVG/1.1/DTD/svg11.dtd">
<svg version="1.1" id="Layer_1" xmlns="http://www.w3.org/2000/svg" xmlns:xlink="http://www.w3.org/1999/xlink" x="0px" y="0px"
	 width="93px" height="122px" viewBox="0 0 93 122" enable-background="new 0 0 93 122" xml:space="preserve">
<text transform="matrix(1 0 0 1 8.7778 112.333)" fill="#4F4E4E" font-family="'Leoscar-Sans-Serif'" font-size="14">Caffe Coffee</text>
<g>
	<path fill="#B6C6BE" d="M55.958,63.207c-0.079-2.315-0.506-4.524-3.033-5.282c-0.97-0.291-1.995-0.124-2.983-0.118
		c-1.046,0.008-2.094-0.081-3.131-0.221c-1.315-0.617-2.799-0.905-4.231-0.764c-0.124,0.013-0.25,0.028-0.375,0.047
		c-2.186-0.498-4.483-1.042-6.685-0.437c-0.587,0.161-1.116,0.401-1.577,0.702c-2.132,0.672-3.437,2.102-3.465,4.449
		c-0.025,2.019,0.339,4.203,1.545,5.862c1.17,1.607,2.939,2.328,4.767,2.961c0.063,0.023,0.128,0.042,0.19,0.063
		c0.053,0.031,0.104,0.065,0.158,0.096c0.411,0.236,0.86,0.347,1.308,0.354c0.091,0.025,0.184,0.05,0.275,0.072
		c3.642,1.052,7.5,1.491,11.268,1.178c2.133-0.177,4.326-0.639,5.413-2.713C56.363,67.629,56.03,65.187,55.958,63.207z"/>
	<g>
		<g>
			<path fill="#5EA9A4" d="M31.768,26.913c-0.656-0.202-1.213-0.567-1.673-1.094c-0.461-0.526-0.812-1.145-1.056-1.854
				c-0.48-1.411-0.624-2.944-0.43-4.604c0.194-1.658,0.664-3.13,1.411-4.416c0.746-1.286,1.655-2.111,2.727-2.476
				c0.503-0.172,0.949-0.19,1.336-0.055c0.387,0.137,0.668,0.462,0.844,0.976c0.149,0.438,0.222,0.974,0.218,1.61
				c-0.005,0.635-0.092,1.206-0.261,1.709c-0.168,0.502-0.409,0.807-0.72,0.913c-0.267,0.091-0.546-0.003-0.832-0.283
				c0.25-0.598,0.458-1.279,0.623-2.042c0.164-0.764,0.178-1.343,0.044-1.736c-0.145-0.426-0.458-0.558-0.941-0.393
				c-0.75,0.257-1.389,0.992-1.913,2.208c-0.523,1.216-0.836,2.598-0.937,4.145c-0.102,1.548,0.046,2.9,0.443,4.06
				c0.297,0.874,0.742,1.546,1.333,2.016c0.59,0.468,1.278,0.57,2.059,0.305c0.557-0.191,1.07-0.546,1.541-1.066
				c0.469-0.521,0.854-1.129,1.152-1.831c0.3-0.699,0.488-1.41,0.565-2.132l0.514,0.137c-0.209,1.389-0.639,2.612-1.289,3.669
				c-0.65,1.058-1.516,1.771-2.6,2.14C33.142,27.085,32.424,27.117,31.768,26.913z"/>
		</g>
		<g>
			<path fill="#5EA9A4" d="M37.585,24.127c-0.258-0.272-0.425-0.637-0.501-1.092c-0.08-0.478-0.066-0.99,0.044-1.535
				c0.11-0.546,0.293-1.016,0.547-1.409c0.257-0.394,0.545-0.618,0.87-0.672c0.133-0.022,0.314-0.006,0.543,0.05
				c-0.021-0.535,0.087-0.999,0.326-1.389c0.238-0.392,0.626-0.632,1.163-0.723c0.446-0.074,0.797-0.001,1.053,0.22
				c0.255,0.221,0.417,0.537,0.486,0.948c0.066,0.398,0.039,0.871-0.082,1.417c-0.121,0.548-0.301,1.104-0.538,1.671
				c0.145,0.046,0.307,0.054,0.485,0.024c0.314-0.053,0.631-0.213,0.953-0.484c0.323-0.269,0.543-0.637,0.66-1.102l0.339,0.172
				c-0.143,0.584-0.389,1.054-0.737,1.405c-0.35,0.352-0.735,0.564-1.161,0.634c-0.256,0.043-0.544,0.038-0.863-0.014
				c-0.33,0.571-0.714,1.057-1.152,1.457c-0.437,0.401-0.891,0.642-1.359,0.72C38.202,24.499,37.843,24.401,37.585,24.127z
				 M39.797,22.984c0.253-0.276,0.494-0.615,0.727-1.017c-0.733-0.463-1.209-1.243-1.427-2.344c-0.123,0.091-0.25,0.33-0.379,0.713
				c-0.13,0.385-0.228,0.806-0.288,1.261c-0.063,0.456-0.067,0.843-0.013,1.161c0.087,0.524,0.319,0.753,0.701,0.69
				C39.318,23.417,39.544,23.261,39.797,22.984z M41.342,19.917c0.108-0.486,0.132-0.913,0.07-1.277
				c-0.085-0.501-0.282-0.726-0.594-0.672c-0.145,0.024-0.285,0.123-0.416,0.296c-0.131,0.175-0.228,0.394-0.286,0.655
				c-0.06,0.262-0.065,0.542-0.015,0.837c0.043,0.261,0.137,0.553,0.284,0.873c0.145,0.323,0.306,0.562,0.48,0.719
				C41.076,20.88,41.234,20.402,41.342,19.917z"/>
		</g>
		<g>
			<path fill="#5EA9A4" d="M42.691,27.591c-0.24-0.236-0.372-0.664-0.392-1.287c-0.04-1.201,0.319-3.108,1.077-5.722
				c0.756-2.613,1.675-4.954,2.756-7.024c1.081-2.069,2.099-3.12,3.049-3.151c0.477-0.016,0.724,0.271,0.742,0.859
				c0.022,0.635-0.179,1.363-0.599,2.186c-0.421,0.823-0.974,1.629-1.662,2.421c-0.688,0.792-1.407,1.459-2.159,2.005l-0.249,0.701
				c0.115,0.042,0.21,0.121,0.289,0.232c0.076,0.113,0.127,0.232,0.155,0.36c0.134,0.619,0.252,1.094,0.354,1.427
				c0.101,0.331,0.249,0.597,0.442,0.799c0.193,0.201,0.454,0.296,0.784,0.285c0.373-0.013,0.705-0.161,0.995-0.449
				c0.291-0.287,0.603-0.729,0.933-1.332l0.383,0.266c-0.314,0.715-0.691,1.258-1.126,1.631c-0.435,0.374-0.851,0.566-1.247,0.579
				c-0.386,0.013-0.793-0.13-1.221-0.427c0.019,0.935-0.088,1.865-0.324,2.793c-0.235,0.925-0.553,1.683-0.952,2.275
				c-0.4,0.591-0.821,0.894-1.261,0.908C43.187,27.938,42.929,27.825,42.691,27.591z M44.541,25.988
				c0.226-0.564,0.412-1.234,0.562-2.013c0.149-0.779,0.216-1.446,0.197-2.001c-0.011-0.323-0.057-0.613-0.14-0.869
				c-0.082-0.258-0.218-0.551-0.411-0.881c-0.366,1.262-0.653,2.41-0.863,3.445c-0.208,1.035-0.304,1.848-0.284,2.435
				c0.016,0.497,0.114,0.742,0.296,0.735C44.101,26.833,44.315,26.548,44.541,25.988z M47.607,14.722
				c0.478-0.64,0.841-1.208,1.09-1.708c0.25-0.5,0.37-0.853,0.363-1.061c0-0.092-0.049-0.137-0.139-0.134
				c-0.397,0.013-0.857,0.464-1.383,1.354c-0.526,0.89-1.053,2.05-1.585,3.477C46.578,16.005,47.13,15.362,47.607,14.722z"/>
		</g>
		<g>
			<path fill="#5EA9A4" d="M47.377,27.282c-0.208-0.263-0.285-0.704-0.23-1.325c0.11-1.198,0.699-3.045,1.772-5.545
				c1.073-2.5,2.273-4.711,3.602-6.632c1.327-1.921,2.467-2.838,3.412-2.752c0.475,0.042,0.685,0.358,0.632,0.944
				c-0.057,0.632-0.345,1.331-0.863,2.096c-0.519,0.765-1.168,1.497-1.946,2.199c-0.78,0.7-1.577,1.274-2.391,1.724l-0.333,0.664
				c0.108,0.058,0.194,0.147,0.258,0.268c0.063,0.121,0.1,0.247,0.109,0.375c0.058,0.632,0.114,1.119,0.176,1.46
				c0.061,0.342,0.173,0.624,0.34,0.849c0.17,0.223,0.416,0.35,0.742,0.378c0.373,0.036,0.721-0.073,1.045-0.321
				c0.323-0.25,0.687-0.652,1.09-1.207l0.348,0.31c-0.401,0.671-0.841,1.164-1.319,1.48c-0.478,0.316-0.914,0.457-1.309,0.422
				c-0.385-0.035-0.77-0.226-1.159-0.575c-0.096,0.932-0.317,1.841-0.664,2.731c-0.348,0.892-0.758,1.605-1.227,2.144
				c-0.469,0.537-0.924,0.785-1.363,0.746C47.826,27.688,47.588,27.545,47.377,27.282z M49.412,25.917
				c0.291-0.529,0.56-1.172,0.804-1.927c0.245-0.755,0.393-1.409,0.443-1.96c0.028-0.322,0.017-0.616-0.032-0.881
				c-0.05-0.266-0.15-0.573-0.302-0.924c-0.518,1.206-0.944,2.31-1.278,3.311c-0.336,1.002-0.529,1.797-0.583,2.383
				c-0.044,0.495,0.024,0.75,0.204,0.766C48.871,26.705,49.118,26.448,49.412,25.917z M53.842,15.117
				c0.551-0.577,0.982-1.096,1.291-1.561c0.31-0.465,0.474-0.801,0.492-1.008c0.008-0.093-0.033-0.143-0.122-0.15
				c-0.396-0.037-0.907,0.355-1.539,1.172c-0.632,0.819-1.299,1.904-2,3.255C52.663,16.262,53.288,15.694,53.842,15.117z"/>
		</g>
		<g>
			<path fill="#5EA9A4" d="M59.537,25.027c-0.269-0.457-0.357-0.96-0.269-1.513c-0.639,0.417-1.299,0.693-1.981,0.833
				c-0.685,0.137-1.33,0.119-1.939-0.058c-0.685-0.199-1.166-0.54-1.445-1.024c-0.277-0.484-0.331-1.019-0.16-1.607
				c0.186-0.644,0.6-1.276,1.238-1.895c0.64-0.62,1.366-1.089,2.177-1.406c0.811-0.318,1.549-0.38,2.212-0.188
				c0.771,0.223,1.053,0.701,0.841,1.433c-0.154,0.532-0.5,0.968-1.033,1.306c-0.535,0.338-1.16,0.559-1.881,0.662
				c-0.722,0.105-1.424,0.099-2.11-0.016c-0.06,0.126-0.11,0.261-0.153,0.406c-0.26,0.898,0.034,1.472,0.881,1.717
				c0.546,0.158,1.149,0.132,1.811-0.079c0.663-0.21,1.298-0.553,1.907-1.026c0.304-0.56,0.743-1.077,1.317-1.547
				c0.571-0.472,1.195-0.811,1.868-1.018s1.292-0.229,1.857-0.065c0.783,0.228,1.068,0.712,0.853,1.456
				c-0.151,0.521-0.472,0.943-0.96,1.263c-0.487,0.322-1.069,0.529-1.744,0.621c-0.677,0.094-1.362,0.082-2.06-0.036
				c-0.066,0.148-0.116,0.278-0.148,0.39c-0.11,0.377-0.116,0.726-0.021,1.047c0.094,0.322,0.376,0.551,0.845,0.687
				c0.673,0.196,1.446,0.108,2.313-0.266c0.87-0.372,1.629-0.909,2.28-1.611l0.227,0.318c-0.751,0.877-1.618,1.521-2.603,1.934
				c-0.988,0.411-1.909,0.492-2.77,0.242C60.257,25.803,59.808,25.482,59.537,25.027z M57.91,20.514
				c0.774-0.311,1.238-0.726,1.39-1.247c0.028-0.101,0.029-0.178,0.004-0.233c-0.023-0.056-0.097-0.102-0.216-0.135
				c-0.307-0.089-0.679-0.04-1.121,0.143c-0.443,0.185-0.889,0.462-1.337,0.83c-0.451,0.37-0.82,0.77-1.109,1.202
				C56.34,21.012,57.137,20.825,57.91,20.514z M63.356,22.256c0.679-0.242,1.093-0.623,1.244-1.145
				c0.038-0.134,0.043-0.231,0.014-0.293c-0.028-0.064-0.103-0.111-0.223-0.146c-0.293-0.084-0.644-0.046-1.051,0.119
				c-0.408,0.164-0.811,0.417-1.21,0.758s-0.739,0.723-1.015,1.148C61.934,22.646,62.68,22.5,63.356,22.256z"/>
		</g>
	</g>
	<g>
		<g>
			<g>
				<path fill="#2D635E" d="M73.024,70.651c-0.769,0.362-1.586,0.758-2.14,1.426c-0.688,0.829-0.536,1.817-0.688,2.816
					c-0.396,2.624-2.635,4.346-4.874,5.43c-0.176,0.085-0.019,0.193,0.114,0.13c1.841-0.892,3.634-2.12,4.545-4.019
					c0.206-0.427,0.367-0.876,0.457-1.344c0.046-0.229,0.063-0.463,0.075-0.695c0.013-0.003,0.024-0.005,0.034-0.01
					c1.529-0.618,2.575-2.032,2.676-3.686C73.23,70.605,73.078,70.628,73.024,70.651z M70.525,74.216
					c0.014-0.307,0.026-0.612,0.08-0.913c0.229-1.266,1.253-1.9,2.32-2.419C72.784,72.353,71.887,73.625,70.525,74.216z"/>
			</g>
		</g>
		<g>
			<g>
				<path fill="#2D635E" d="M70.063,76.13c0.206-1.496-1.014-2.676-2.191-3.414c-0.069-0.044-0.231,0.001-0.252,0.087
					c-0.199,0.82-0.015,2.011,0.543,2.658c0.347,0.404,1.014,0.855,1.601,0.834c-0.018,0.113,0.263,0.069,0.281-0.034
					c0.002-0.009,0.002-0.017,0.004-0.026C70.093,76.201,70.099,76.155,70.063,76.13z M68.053,74.687
					c-0.178-0.503-0.27-1.146-0.192-1.692c1.063,0.713,2.094,1.798,1.924,3.146C69.057,76.176,68.248,75.233,68.053,74.687z"/>
			</g>
		</g>
		<g>
			<g>
				<path fill="#2D635E" d="M74.199,75.882c-1.297-0.047-3.423-0.848-4.464,0.309c-0.094,0.102,0.042,0.158,0.151,0.136
					c-0.053,0.047-0.072,0.117,0.016,0.158c1.429,0.679,3.071,0.509,4.344-0.426C74.32,76.004,74.301,75.886,74.199,75.882z
					 M70.062,76.288c-0.027-0.016-0.06-0.016-0.092-0.008c0.003,0,0.003,0,0.003,0c0.825-0.918,2.68-0.33,3.857-0.205
					C72.687,76.801,71.299,76.875,70.062,76.288z"/>
			</g>
		</g>
		<g>
			<g>
				<path fill="#2D635E" d="M71.395,72.644c-0.239,0.57-0.49,1.149-0.973,1.56c-0.143,0.124,0.079,0.23,0.189,0.136
					c0.519-0.442,0.794-1.046,1.054-1.658C71.729,72.529,71.445,72.522,71.395,72.644z"/>
			</g>
		</g>
		<g>
			<g>
				<path fill="#2D635E" d="M70.062,76.093c-0.275-0.012-0.535-0.444-0.68-0.641c-0.198-0.264-0.359-0.541-0.462-0.854
					c-0.027-0.078-0.306,0.003-0.283,0.074c0.12,0.356,0.314,0.671,0.544,0.967c0.18,0.228,0.384,0.57,0.703,0.583
					C69.953,76.226,70.206,76.102,70.062,76.093z"/>
			</g>
		</g>
		<g>
			<g>
				<path fill="#2D635E" d="M71.613,76.105c-0.459,0.073-1.23,0.227-1.612-0.117c-0.07-0.063-0.335,0.042-0.262,0.107
					c0.448,0.401,1.298,0.246,1.833,0.161C71.704,76.235,71.809,76.075,71.613,76.105z"/>
			</g>
		</g>
	</g>
	<g>
		<g>
			<g>
				<path fill="#2D635E" d="M19.776,71.101c0.101,1.65,1.147,3.064,2.676,3.684c0.011,0.007,0.024,0.008,0.035,0.01
					c0.013,0.231,0.03,0.466,0.075,0.696c0.091,0.466,0.252,0.916,0.458,1.345c0.911,1.898,2.704,3.124,4.545,4.016
					c0.131,0.063,0.29-0.044,0.115-0.129c-2.239-1.084-4.478-2.806-4.875-5.431c-0.151-0.996,0-1.987-0.687-2.816
					c-0.554-0.667-1.373-1.061-2.142-1.425C19.923,71.025,19.772,71.003,19.776,71.101z M20.075,71.282
					c1.068,0.52,2.092,1.152,2.32,2.419c0.054,0.301,0.066,0.606,0.081,0.914C21.114,74.022,20.216,72.75,20.075,71.282z"/>
			</g>
		</g>
		<g>
			<g>
				<path fill="#2D635E" d="M22.95,76.633c0.001,0.01,0.001,0.02,0.003,0.028c0.021,0.101,0.303,0.146,0.284,0.034
					c0.584,0.019,1.251-0.431,1.6-0.837c0.558-0.646,0.741-1.838,0.543-2.657c-0.021-0.087-0.184-0.131-0.251-0.088
					c-1.179,0.739-2.399,1.918-2.193,3.415C22.904,76.554,22.906,76.599,22.95,76.633z M23.216,76.537
					c-0.17-1.348,0.861-2.432,1.924-3.146c0.077,0.548-0.014,1.19-0.192,1.694C24.753,75.631,23.944,76.575,23.216,76.537z"/>
			</g>
		</g>
		<g>
			<g>
				<path fill="#2D635E" d="M18.754,76.457c1.272,0.934,2.916,1.104,4.344,0.426c0.088-0.041,0.07-0.111,0.014-0.159
					c0.11,0.023,0.245-0.033,0.153-0.136c-1.041-1.155-3.167-0.355-4.463-0.307C18.7,76.285,18.679,76.402,18.754,76.457z
					 M19.17,76.474c1.178-0.126,3.031-0.713,3.859,0.206c0,0,0,0,0.001,0c-0.032-0.007-0.064-0.007-0.091,0.006
					C21.702,77.273,20.312,77.199,19.17,76.474z"/>
			</g>
		</g>
		<g>
			<g>
				<path fill="#2D635E" d="M21.606,73.041c0.239,0.571,0.491,1.15,0.97,1.56c0.145,0.124-0.076,0.231-0.188,0.136
					c-0.516-0.44-0.795-1.045-1.053-1.658C21.272,72.927,21.554,72.921,21.606,73.041z"/>
			</g>
		</g>
		<g>
			<g>
				<path fill="#2D635E" d="M22.939,76.493c0.276-0.013,0.535-0.447,0.681-0.643c0.197-0.264,0.356-0.541,0.463-0.854
					c0.025-0.078,0.306,0.003,0.281,0.074c-0.12,0.356-0.313,0.671-0.545,0.967c-0.178,0.228-0.382,0.57-0.701,0.584
					C23.048,76.623,22.794,76.497,22.939,76.493z"/>
			</g>
		</g>
		<g>
			<g>
				<path fill="#2D635E" d="M21.388,76.504c0.459,0.073,1.229,0.227,1.61-0.118c0.073-0.063,0.334,0.043,0.263,0.108
					c-0.448,0.401-1.298,0.245-1.833,0.161C21.296,76.634,21.192,76.474,21.388,76.504z"/>
			</g>
		</g>
	</g>
	<g>
		<g>
			<g>
				<path fill="#5EA9A4" d="M48.949,61.969c-0.082-0.269-0.219-0.446-0.402-0.655c-0.217-0.242-0.521-0.228-0.789-0.378
					c-0.519-0.291-1.146-0.206-1.712-0.091c-0.308,0.065-0.67,0.109-0.96,0.236c-0.122,0.054-0.248,0.126-0.364,0.191
					c-0.159,0.09-0.263,0.226-0.403,0.339c-0.576,0.457-1.054,0.986-1.458,1.607c-0.204,0.313-0.365,0.652-0.473,1.011
					c-0.114,0.382-0.082,0.746-0.041,1.138c0.009,0.08,0.119,0.085,0.139,0.02c0.237,0.232,0.742,0.221,1.026,0.148
					c0.544-0.143,1.077-0.416,1.393-0.901c0.193-0.294,0.285-0.61,0.527-0.878c0.258-0.287,0.546-0.535,0.868-0.75
					c0.254-0.169,0.528-0.279,0.806-0.409c0.371-0.172,0.72-0.29,1.135-0.281C48.535,62.321,49.092,62.438,48.949,61.969z
					 M48.146,62.123c-0.537-0.003-1.016,0.249-1.495,0.465c-0.474,0.215-0.887,0.55-1.249,0.92c-0.214,0.22-0.382,0.451-0.514,0.729
					c-0.14,0.295-0.293,0.535-0.569,0.721c-0.258,0.172-0.489,0.296-0.79,0.373c-0.196,0.051-0.378,0.098-0.582,0.059
					c-0.164-0.033-0.398-0.123-0.404-0.318c0-0.051-0.037-0.078-0.079-0.085c-0.004-0.185,0-0.368,0.044-0.55
					c0.074-0.307,0.205-0.607,0.359-0.881c0.283-0.5,0.667-1.008,1.089-1.399c0.181-0.168,0.386-0.307,0.566-0.476
					c0.218-0.204,0.471-0.379,0.762-0.467c0.548-0.166,1.146-0.278,1.718-0.278c0.146,0,0.297,0.003,0.438,0.049
					c0.129,0.041,0.229,0.136,0.355,0.187c0.104,0.044,0.219,0.059,0.328,0.094c0.18,0.063,0.26,0.175,0.382,0.311
					c0.095,0.104,0.162,0.194,0.213,0.328c0.015,0.034,0.076,0.156,0.065,0.189c-0.003,0.012-0.003,0.019-0.002,0.021
					c-0.01,0.003-0.023,0.01-0.049,0.022C48.625,62.196,48.266,62.124,48.146,62.123z"/>
			</g>
			<g>
				<path fill="#5EA9A4" d="M49.88,63.326c-0.063-0.49-0.358-1.059-0.886-1.152c-0.337-0.06-0.645-0.037-0.963,0.084
					c-0.128,0.048-0.244,0.119-0.368,0.173c-0.169,0.075-0.335,0.176-0.493,0.271c-0.581,0.34-1.141,0.742-1.548,1.283
					c-0.119,0.157-0.208,0.325-0.31,0.494c-0.11,0.186-0.24,0.311-0.393,0.459c-0.278,0.268-0.606,0.563-0.998,0.635
					c-0.422,0.076-0.878-0.104-1.276-0.224c-0.107-0.032-0.251-0.089-0.361-0.037c-0.018,0.009-0.048,0.056-0.069,0.097
					c-0.047,0.003-0.094,0.032-0.098,0.093c-0.033,0.61,0.615,0.959,1.076,1.179c0.327,0.156,0.648,0.197,1.006,0.21
					c0.391,0.017,0.771,0.061,1.162,0.01c0.374-0.05,0.762-0.089,1.125-0.191c0.358-0.102,0.692-0.253,1.026-0.412
					c0.619-0.293,1.21-0.612,1.619-1.182C49.504,64.599,49.966,64.002,49.88,63.326z M49.321,64.506
					c-0.345,0.533-0.711,0.982-1.27,1.303c-0.56,0.321-1.177,0.617-1.808,0.766c-0.754,0.176-1.523,0.171-2.29,0.113
					c-0.393-0.03-0.74-0.189-1.083-0.381c-0.267-0.146-0.573-0.468-0.56-0.797c0.117-0.131,0.635,0.116,0.771,0.158
					c0.253,0.082,0.543,0.135,0.809,0.1c0.565-0.077,0.916-0.496,1.318-0.845c0.196-0.171,0.287-0.394,0.42-0.613
					c0.17-0.284,0.411-0.53,0.652-0.758c0.221-0.21,0.488-0.358,0.738-0.53c0.256-0.175,0.531-0.328,0.815-0.449
					c0.277-0.117,0.502-0.256,0.82-0.24c0.348,0.016,0.629,0.098,0.816,0.408c0.145,0.235,0.242,0.536,0.228,0.813
					C49.679,63.9,49.505,64.22,49.321,64.506z"/>
			</g>
			<g>
				<path fill="#5EA9A4" d="M44.75,61.323c-0.824,0.405-1.457,1.081-1.944,1.845c-0.229,0.358-0.401,0.772-0.549,1.17
					c-0.122,0.326-0.22,0.881,0.004,1.182c0.073,0.098,0.237-0.004,0.163-0.102c-0.139-0.186-0.101-0.527-0.063-0.742
					c0.034-0.19,0.114-0.356,0.19-0.531c0.157-0.361,0.306-0.695,0.511-1.033c0.424-0.696,1.073-1.248,1.743-1.701
					C44.863,61.372,44.81,61.293,44.75,61.323z"/>
			</g>
			<g>
				<path fill="#5EA9A4" d="M48.994,62.085c-0.119-0.199-0.235-0.393-0.386-0.574c-0.134-0.162-0.354-0.304-0.531-0.417
					c-0.431-0.272-1.024-0.31-1.515-0.243c-0.524,0.072-1.118,0.18-1.599,0.404c-0.262,0.122-0.483,0.309-0.716,0.477
					c-0.092,0.067-0.183,0.136-0.27,0.211c-0.109,0.093-0.215,0.251-0.346,0.31c-0.035,0.014-0.02,0.067,0.018,0.057
					c0.186-0.057,0.335-0.248,0.492-0.359c0.206-0.15,0.421-0.307,0.642-0.436c0.468-0.275,1.059-0.356,1.587-0.442
					c0.502-0.079,1.017-0.088,1.494,0.124c0.437,0.194,0.731,0.594,0.968,0.991C48.895,62.293,49.057,62.19,48.994,62.085z"/>
			</g>
			<g>
				<path fill="#5EA9A4" d="M49.929,63.371c-0.042-0.195-0.146-0.439-0.273-0.594c-0.118-0.139-0.252-0.256-0.363-0.398
					c-0.069-0.092-0.156-0.18-0.22-0.275c-0.055-0.078-0.078-0.158-0.143-0.229c-0.082-0.093-0.213,0.048-0.132,0.14
					c0.097,0.105,0.148,0.252,0.241,0.365c0.092,0.113,0.181,0.225,0.28,0.332c0.122,0.133,0.236,0.236,0.311,0.404
					c0.093,0.215,0.158,0.41,0.102,0.643c-0.194,0.82-0.786,1.285-1.427,1.768c-0.557,0.415-1.186,0.686-1.828,0.936
					c-0.723,0.283-1.491,0.433-2.264,0.341c-0.395-0.044-0.812-0.077-1.164-0.284c-0.177-0.102-0.423-0.256-0.552-0.416
					c-0.186-0.232-0.174-0.516-0.086-0.781c0.019-0.057-0.078-0.093-0.1-0.037c-0.128,0.334-0.174,0.703,0.097,0.988
					c0.262,0.274,0.615,0.469,0.972,0.577c0.415,0.127,0.848,0.158,1.283,0.18c0.436,0.023,0.833-0.092,1.248-0.201
					c0.214-0.055,0.414-0.103,0.62-0.183c0.21-0.083,0.416-0.174,0.623-0.261c0.36-0.15,0.705-0.31,1.02-0.536
					c0.34-0.246,0.687-0.486,0.996-0.768c0.329-0.301,0.541-0.645,0.68-1.063C49.921,63.801,49.979,63.6,49.929,63.371z"/>
			</g>
			<g>
				<path fill="#5EA9A4" d="M49.745,63.309c0.006,0.422-0.064,0.84-0.198,1.238c-0.078,0.23-0.202,0.453-0.313,0.666
					c-0.098,0.187-0.197,0.389-0.325,0.556c-0.256,0.338-0.623,0.661-0.98,0.891c-0.373,0.241-0.821,0.392-1.23,0.563
					c-0.864,0.366-1.891,0.355-2.797,0.159c-0.447-0.097-0.893-0.359-1.198-0.7c-0.164-0.186-0.264-0.391-0.332-0.626
					c-0.035-0.122-0.15-0.467-0.042-0.587c0.063-0.067-0.038-0.162-0.102-0.096c-0.167,0.166-0.063,0.535-0.013,0.731
					c0.089,0.345,0.259,0.627,0.522,0.867c0.61,0.559,1.427,0.715,2.229,0.722c0.209,0.002,0.423,0.01,0.633-0.003
					c0.228-0.016,0.433-0.09,0.656-0.134c0.39-0.076,0.743-0.256,1.109-0.417c0.695-0.304,1.433-0.763,1.82-1.447
					c0.43-0.758,0.761-1.509,0.752-2.392C49.936,63.18,49.745,63.186,49.745,63.309z"/>
			</g>
			<g>
				<path fill="#5EA9A4" d="M44.096,62.902c-0.003-0.008-0.005-0.016-0.006-0.021c-0.012-0.06-0.089-0.078-0.134-0.053
					c-0.211,0.135-0.375,0.461-0.495,0.67c-0.19,0.33-0.255,0.688-0.395,1.035c-0.029,0.073,0.076,0.133,0.108,0.059
					c0.13-0.289,0.204-0.597,0.352-0.881c0.115-0.217,0.277-0.539,0.485-0.695C44.059,63.011,44.108,62.967,44.096,62.902z"/>
			</g>
			<g>
				<path fill="#5EA9A4" d="M44.546,62.119c-0.236,0.125-0.6,0.234-0.704,0.51c-0.019,0.051,0.067,0.082,0.089,0.035
					c0.05-0.115,0.196-0.197,0.301-0.256c0.122-0.067,0.246-0.108,0.376-0.152C44.709,62.222,44.645,62.066,44.546,62.119z"/>
			</g>
			<g>
				<path fill="#5EA9A4" d="M49.143,63.141c-0.004-0.077-0.122-0.07-0.122,0.007c-0.003,0.526-0.153,1.023-0.514,1.417
					c-0.164,0.181-0.36,0.33-0.556,0.474c-0.143,0.103-0.326,0.181-0.449,0.306c-0.079,0.081,0.048,0.197,0.129,0.121
					c0.168-0.163,0.414-0.274,0.601-0.422c0.201-0.162,0.386-0.332,0.54-0.539C49.066,64.109,49.156,63.626,49.143,63.141z"/>
			</g>
			<g>
				<path fill="#5EA9A4" d="M47.748,64.578c-0.139,0.176-0.298,0.322-0.484,0.448c-0.151,0.104-0.359,0.157-0.486,0.288
					c-0.044,0.049,0.022,0.136,0.076,0.092c0.082-0.069,0.184-0.1,0.277-0.15c0.106-0.059,0.206-0.131,0.303-0.205
					c0.154-0.119,0.28-0.256,0.392-0.416C47.857,64.59,47.78,64.533,47.748,64.578z"/>
			</g>
		</g>
		<g>
			<path fill="#5EA9A4" d="M54.041,37.128c-0.729-0.244-1.589-0.173-2.278,0.202c-0.04,0.011-0.077,0.027-0.109,0.049
				c-0.372,0.285-0.925,0.565-1.019,1.086c-0.093,0.516,0.231,1.008,0.624,1.282c0.954,0.661,2.484,0.175,3.313-0.516
				C55.423,38.523,54.976,37.441,54.041,37.128z M51.33,38.998c0.019,0.046,0.041,0.091,0.07,0.134
				c-0.028-0.042-0.054-0.083-0.075-0.124C51.327,39.004,51.33,39.001,51.33,38.998z M54.173,38.366
				c0.002-0.012,0.005-0.021,0.008-0.032c0.01,0,0.02,0.001,0.028,0.001C54.196,38.345,54.184,38.354,54.173,38.366z M53.036,38.359
				c-0.003,0-0.01,0-0.015-0.001c0.009,0,0.013-0.002,0.019-0.002C53.039,38.358,53.037,38.359,53.036,38.359z M52.568,38.463
				c-0.068-0.008-0.135-0.011-0.198-0.008c0.088-0.019,0.177-0.035,0.266-0.049C52.612,38.425,52.591,38.444,52.568,38.463z
				 M51.878,37.71c0.433-0.304,0.973-0.396,1.512-0.293c0.373,0.07,0.742,0.307,0.938,0.606c-0.717-0.028-1.43,0.026-2.135,0.198
				c-0.102,0.024-0.212,0.051-0.323,0.081c-0.085,0.011-0.17,0.037-0.245,0.072c-0.12,0.038-0.235,0.086-0.344,0.142
				C51.355,38.228,51.596,37.949,51.878,37.71z M51.714,39.435c-0.124-0.089-0.218-0.18-0.289-0.272
				c0.083,0.102,0.2,0.181,0.338,0.215c0.063,0.172,0.317,0.247,0.539,0.278C52.09,39.629,51.89,39.561,51.714,39.435z"/>
		</g>
		<g>
			<path fill="#5EA9A4" d="M63.881,45.75c-0.333-0.916-0.562-1.855-0.723-2.815c0-0.008-0.012-0.013-0.021-0.018
				c-0.035-0.296-0.087-0.586-0.114-0.825c-0.199-1.761-0.593-3.487-1.149-5.166c0.002-0.027,0.006-0.054,0.006-0.081
				c0-2.803-7.085-4.999-16.127-4.999c-5.163,0-9.686,0.717-12.617,1.854c-0.051,0.014-0.103,0.027-0.156,0.043
				c-0.951,0.29-1.984,0.618-2.68,1.401c-0.11,0.126-0.206,0.251-0.283,0.38c-0.163,0.005-0.37,0.083-0.382,0.188
				c-0.248,1.872-0.493,3.742-0.738,5.614c-0.07,0.519-0.216,1.113-0.25,1.678c-0.465,1.79-0.814,3.599-1.043,5.434
				c0.006,0.006,0.011,0.011,0.016,0.018c1.676,1.003,3.515,1.539,5.411,1.849c0.055,0.035,0.136,0.046,0.221,0.035
				c1.471,0.227,2.973,0.325,4.454,0.401c4.076,0.217,8.201,0.457,12.285,0.414c0.689-0.006,1.377-0.047,2.059-0.11
				c0.013,0.054,0.229,0.032,0.33-0.033c1.989-0.211,3.951-0.629,5.894-1.121c0.081,0.019,0.219-0.015,0.285-0.072
				c0.676-0.174,1.347-0.354,2.019-0.537c0.741-0.204,1.477-0.424,2.206-0.665c0.077,0.086,0.344,0.029,0.366-0.106
				c0.002-0.004,0.002-0.007,0.003-0.013c0.386-0.124,1.027-0.263,1.291-0.594C64.871,47.357,64.08,46.298,63.881,45.75z
				 M45.751,32.08c0.113,0,0.227,0.002,0.34,0.002c-0.01,0.004-0.02,0.008-0.03,0.011c-0.386-0.006-0.774-0.006-1.16-0.006
				C45.183,32.082,45.467,32.08,45.751,32.08z M34.415,33.649c2.183-0.522,4.421-0.755,6.654-0.884
				c2.83-0.164,5.714-0.306,8.57-0.154c1.979,0.182,3.947,0.485,5.886,0.947c0.681,0.161,1.467,0.325,2.238,0.558
				c0.649,0.275,1.262,0.623,1.762,1.11c0.573,0.559,1.007,1.51,0.989,2.368c-0.36-0.246-0.74-0.454-1.139-0.626
				c-0.47-0.239-0.972-0.41-1.509-0.505c-1.339-0.339-2.758-0.467-4.048-0.627c-0.943-0.118-1.889-0.208-2.837-0.274
				c-2.12-0.261-4.258-0.379-6.403-0.315c-2.68,0.082-5.361,0.448-7.962,1.144c-0.616,0.164-1.349,0.334-2.088,0.559
				c-1.206,0.318-2.42,0.78-3.284,1.59c-0.497-0.483-0.893-1.098-0.971-1.756C30.669,34.976,32.704,34.151,34.415,33.649z
				 M56.922,39.811c-4.199,1.373-8.757,1.794-13.139,1.685c-2.319-0.058-4.632-0.297-6.918-0.71
				c-0.106-0.019-0.213-0.038-0.321-0.059c-1.566-0.334-2.922-0.751-3.996-1.231c-0.281-0.154-0.551-0.329-0.806-0.526
				c0.755-0.949,2.185-1.287,3.244-1.638c1.092-0.363,2.203-0.662,3.327-0.902c0.522-0.112,1.049-0.208,1.577-0.293
				c2.055-0.273,4.127-0.423,6.199-0.452c4.308,0.043,8.574,0.806,12.731,1.967c0.408,0.232,0.807,0.484,1.198,0.75
				c-0.038,0.048-0.074,0.097-0.116,0.145C58.947,39.056,57.945,39.474,56.922,39.811z M58.959,39.373
				c-0.04,0.025-0.08,0.052-0.122,0.076c-0.193,0.08-0.393,0.151-0.591,0.215C58.485,39.572,58.724,39.474,58.959,39.373z
				 M55.978,36.438c0.366,0.057,0.73,0.124,1.093,0.206c-0.006,0.016-0.009,0.03-0.009,0.046
				C56.702,36.601,56.341,36.517,55.978,36.438z M29.496,41.06c0.129-0.987,0.258-1.975,0.389-2.96
				c0.261,0.537,0.676,1.022,1.183,1.363c0.907,0.61,1.996,0.868,3.03,1.141c0.091,0.023,0.183,0.044,0.274,0.066
				c0.419,0.118,0.844,0.217,1.273,0.303c0.93,0.206,1.867,0.381,2.806,0.521c3.755,0.562,7.573,0.615,11.348,0.198
				c4.326-0.335,7.904-1.198,10.016-2.365c0.536-0.191,0.979-0.495,1.31-0.938c0.165-0.166,0.309-0.334,0.422-0.506
				c0.256,0.856,0.474,1.725,0.638,2.608c0.132,0.698,0.23,1.4,0.3,2.107c0.037,0.36,0.188,1.004,0.065,1.338
				c-0.243,0.655-1.007,0.942-1.613,1.147c-3.008,1.018-6.444,1.328-9.598,1.61c-3.341,0.297-6.707,0.347-10.056,0.15
				c-1.696-0.099-3.39-0.264-5.075-0.491c-1.51-0.205-3.089-0.379-4.534-0.884c-0.813-0.285-1.819-0.723-2.244-1.5
				C28.987,43.161,29.377,41.941,29.496,41.06z M54.745,46.575c0.216,1.273,0.364,2.553,0.443,3.841
				c-0.913,0.182-1.83,0.331-2.759,0.42c0.003-1.324-0.089-2.635-0.278-3.944C53.019,46.802,53.883,46.697,54.745,46.575z
				 M43.05,48.808c0.117,0.65,0.192,1.286,0.16,1.942c-0.921-0.023-1.841-0.049-2.765-0.078c0.014-0.015,0.023-0.031,0.023-0.047
				c0.044-1.172,0.114-2.339,0.204-3.508c0.722,0.046,1.445,0.083,2.171,0.105C42.778,47.746,42.958,48.295,43.05,48.808z
				 M32.962,50.024c-0.657-0.107-1.351-0.235-2.015-0.424c0.022-0.023,0.04-0.049,0.045-0.078c0.147-0.818,0.265-1.641,0.336-2.471
				c0.03-0.364,0.143-0.847,0.084-1.253c0.612,0.201,1.249,0.34,1.886,0.452c0,0,0,0,0,0.002
				C33.093,47.503,32.982,48.758,32.962,50.024z M28.505,46.104c0.111-0.631,0.242-1.258,0.386-1.882
				c0.24,0.381,0.632,0.664,1.027,0.905c0.259,0.159,0.532,0.291,0.809,0.411c-0.008,0.032-0.005,0.063,0.016,0.097
				c0.292,0.451,0.003,1.594-0.054,2.104c-0.062,0.572-0.15,1.14-0.251,1.706c-0.62-0.209-1.201-0.478-1.684-0.835
				C27.937,48.005,28.346,46.999,28.505,46.104z M33.539,50.112c0.015-1.264,0.122-2.518,0.319-3.766
				c0.16,0.025,0.318,0.051,0.476,0.076c0.917,0.145,1.835,0.269,2.755,0.376c-0.281,1.212-0.416,2.43-0.404,3.672
				c-0.932-0.074-1.858-0.172-2.78-0.304C33.785,50.148,33.664,50.131,33.539,50.112z M36.987,50.492
				c0.048-0.023,0.083-0.055,0.081-0.093c-0.013-1.206,0.119-2.386,0.384-3.562c0.816,0.091,1.634,0.169,2.454,0.23
				c0.13,0.011,0.261,0.016,0.392,0.025c-0.091,1.153-0.158,2.308-0.206,3.462c-0.01,0.015-0.015,0.029-0.015,0.044
				c0.002,0.019,0.003,0.041,0.003,0.06C39.047,50.622,38.015,50.571,36.987,50.492z M43.586,50.759
				c0.001-0.005,0.006-0.01,0.006-0.017c0.039-0.597-0.012-1.173-0.109-1.764c-0.09-0.541-0.308-1.187-0.264-1.747
				c0.914,0.024,1.828,0.031,2.744,0.019c0.044,1.207,0.372,2.394,0.388,3.599c-0.306-0.011-0.61-0.023-0.914-0.033
				C44.822,50.792,44.204,50.776,43.586,50.759z M46.74,50.865c-0.006-1.214-0.328-2.407-0.389-3.621
				c0.776-0.016,1.551-0.042,2.324-0.083c-0.012,0.016-0.018,0.033-0.012,0.052c0.348,1.222,0.492,2.458,0.433,3.726
				C48.311,50.925,47.524,50.896,46.74,50.865z M49.477,50.941c0.069-1.293-0.066-2.553-0.42-3.801
				c0.669-0.038,1.336-0.083,2.003-0.142c0.232-0.019,0.465-0.044,0.697-0.067c0.193,1.308,0.287,2.618,0.285,3.939
				c-0.307,0.024-0.617,0.045-0.93,0.056C50.568,50.945,50.021,50.949,49.477,50.941z M55.576,50.336
				c-0.078-1.28-0.225-2.553-0.438-3.817c0.601-0.09,1.2-0.183,1.798-0.287c0.022-0.005,0.047-0.008,0.069-0.013
				c0,0.001,0,0.001,0,0.001c0.145,0.606,0.439,1.137,0.683,1.708c0.252,0.582,0.371,1.195,0.501,1.812
				c-0.286,0.064-0.565,0.128-0.842,0.195C56.755,50.077,56.165,50.213,55.576,50.336z M58.574,49.657
				c-0.129-0.623-0.248-1.241-0.499-1.832c-0.24-0.559-0.527-1.08-0.676-1.672c0.825-0.141,1.669-0.28,2.492-0.479
				c-0.035,0.027-0.06,0.061-0.056,0.101c0.069,1.138,0.189,2.271,0.356,3.4c0.021,0.136,0.407,0.047,0.386-0.102
				c-0.168-1.129-0.287-2.261-0.358-3.4c-0.002-0.038-0.037-0.057-0.082-0.063c0.493-0.127,0.977-0.279,1.44-0.471
				c0.061-0.023,0.126-0.051,0.19-0.079c0.448,1.114,1.188,2.163,1.001,3.41C61.475,49.031,59.996,49.348,58.574,49.657z
				 M63.172,48.324c0.135-1.225-0.579-2.273-1.023-3.38c-0.007-0.018-0.02-0.031-0.033-0.042c0.275-0.134,0.541-0.299,0.733-0.513
				c0.124,0.511,0.274,1.016,0.454,1.515c0.151,0.412,0.498,0.918,0.565,1.343c0.038,0.093,0.076,0.188,0.114,0.282
				C63.791,47.913,63.521,48.177,63.172,48.324z"/>
		</g>
		<g>
			<path fill="#5EA9A4" d="M30.324,51.571c-0.003-0.016-0.006-0.032-0.011-0.047c0.008,0.013,0.018,0.028,0.024,0.042
				C30.333,51.568,30.328,51.569,30.324,51.571z"/>
		</g>
		<g>
			<path fill="#5EA9A4" d="M51.35,51.505c-0.018,0.007-0.034,0.018-0.05,0.028c-0.036-0.005-0.071-0.01-0.105-0.017
				C51.245,51.513,51.297,51.51,51.35,51.505z"/>
		</g>
		<g>
			<path fill="#5EA9A4" d="M40.542,52.017c-0.003,0.001-0.006,0.003-0.01,0.003c-0.006-0.002-0.013-0.003-0.02-0.005
				C40.523,52.015,40.533,52.017,40.542,52.017z"/>
		</g>
		<g>
			<path fill="#5EA9A4" d="M36.887,50.732c-0.004,0.002-0.007,0.002-0.01,0.003c-0.021-0.001-0.041-0.003-0.061-0.003
				C36.84,50.731,36.864,50.732,36.887,50.732z"/>
		</g>
		<g>
			<path fill="#5EA9A4" d="M35.114,51.436c0.008,0.017,0.021,0.033,0.036,0.049c-0.009,0.006-0.019,0.013-0.026,0.021
				c-0.015-0.005-0.029-0.009-0.043-0.013c-0.006-0.002-0.013-0.005-0.019-0.006C35.08,51.468,35.099,51.453,35.114,51.436z"/>
		</g>
		<g>
			<polygon fill="#5EA9A4" points="61.99,49.022 61.982,49.021 61.992,49.02 62.003,49.021 			"/>
		</g>
		<g>
			<g>
				<path fill="#5EA9A4" d="M63.225,59.63c0.05-0.83,0.022-1.661-0.038-2.489c-0.044-0.605-0.104-1.202-0.347-1.742
					c-0.037-0.25-0.099-0.392-0.215-0.468c-0.028-0.02-0.06-0.03-0.093-0.039c-0.015-0.042-0.05-0.071-0.109-0.065
					c-0.086,0.009-0.174,0.016-0.262,0.023c0.182-1.725,0.395-3.448,0.672-5.164c0.008-0.029,0.021-0.057,0.03-0.088
					c0.068-0.224,0.184-0.547,0.167-0.811c0.032-0.115,0.059-0.234,0.083-0.353c0.025-0.126-0.242-0.093-0.265,0.022
					c-0.004,0.021-0.012,0.042-0.015,0.064c-0.112-0.037-0.456,0.06-0.481,0.151c-0.006,0.013-0.007,0.025-0.012,0.039
					c-0.03,0.003-0.061,0.006-0.096,0.016c-0.197,0.047-0.396,0.094-0.594,0.141c-0.129,0.032-0.23,0.104-0.211,0.142
					c-0.011,0.003-0.026,0-0.039,0.003c-0.454,0.093-0.859,0.228-1.261,0.401c-0.078-0.029-0.186-0.035-0.3-0.005
					c-0.68,0.183-1.355,0.373-2.03,0.572c-0.011,0-0.022,0.002-0.033,0.003c-0.074-0.018-0.163-0.02-0.257,0.002
					c-0.128,0.032-0.255,0.06-0.384,0.092c-0.449,0.077-0.895,0.181-1.343,0.319c-0.076,0.023-0.136,0.052-0.183,0.083
					c-1.204,0.122-2.408,0.244-3.611,0.363c-0.101,0.012-0.192,0.05-0.265,0.101c-0.007,0.002-0.016,0.002-0.024,0.002
					c-1.454-0.222-2.913,0.013-4.367-0.031c-0.36-0.154-0.869-0.12-1.201-0.11c-0.11,0.003-0.399,0.141-0.508,0.263
					c-0.576-0.068-1.154-0.115-1.74-0.13c-0.055-0.002-0.115,0.012-0.171,0.031c-0.133-0.002-0.27,0.001-0.412,0.007
					c-0.323-0.065-0.664-0.098-1.007-0.113c-2.351-0.357-4.774-0.588-7.039-0.267c-0.942-0.18-1.883-0.379-2.828-0.553
					c-0.038-0.051-0.104-0.091-0.208-0.112c-0.441-0.083-0.875-0.128-1.313-0.15c-0.118-0.052-0.242-0.085-0.379-0.094
					c-0.011,0-0.048,0.006-0.086,0.017c-0.102-0.052-0.206-0.103-0.304-0.159c-0.059-0.034-0.132-0.044-0.21-0.041
					c-0.089-0.148-0.183-0.29-0.286-0.43c-0.06-0.076-0.244-0.053-0.373,0.011c-0.016-0.032-0.029-0.062-0.045-0.092
					c-0.042-0.089-0.298-0.006-0.261,0.07c0.001,0.002,0.001,0.005,0.003,0.006c-0.004,0.009-0.006,0.019-0.001,0.027
					c0.146,0.313,0.272,0.63,0.39,0.951c0,0.006-0.003,0.013-0.003,0.017c0.325,1.377,0.647,2.755,0.938,4.138
					c-0.048-0.012-0.1-0.024-0.145-0.034c-0.073-0.014-0.183-0.011-0.29,0.097c-0.696,0.705-0.486,5.95-0.185,10.2
					c-0.03,1.436,0.087,2.873,0.352,4.282c0.073,0.78,0.124,1.261,0.129,1.285c0.07,0.31,0.768,0.724,1.894,1.17
					c0.052,0.693,0.114,1.385,0.203,2.071c-0.007,0.039-0.01,0.081-0.001,0.129c0.013,0.071,0.025,0.144,0.039,0.216
					c-0.025,0.045-0.039,0.091-0.033,0.139c0.118,0.976,0.24,1.975,0.491,2.925c0.164,0.614,0.199,0.75,0.783,0.913
					c0.007,0.001,0.017,0.004,0.026,0.007c0.022,0.017,0.045,0.032,0.069,0.05c0.742,1.322,2.558,1.849,3.994,2.213
					c2.548,0.646,5.164,1.038,7.793,1.139c2.727,0.106,5.463-0.097,8.131-0.662c1.249-0.267,2.554-0.572,3.735-1.058
					c0.555-0.229,1.073-0.542,1.085-1.128c0.439-0.106,0.815-0.289,1.038-0.592c0.381-0.518,0.401-1.467,0.473-2.168
					c0.219-0.874,0.384-1.762,0.524-2.652c0.373-0.019,0.745-0.029,1.08-0.263c0.459-0.322,0.683-0.887,0.794-1.413
					c0.183-0.849,0.146-1.739,0.179-2.601c0.005-0.112,0.011-0.226,0.017-0.339c0.136-1.393,0.253-2.986,0.336-4.528
					C62.967,62.275,63.148,60.955,63.225,59.63z M62.927,57.264c-0.003,0.014-0.008,0.026-0.008,0.045
					c0,0.036-0.001,0.075-0.001,0.111c-0.006-0.151-0.009-0.297-0.012-0.432c0.006,0.074,0.013,0.147,0.019,0.223
					C62.925,57.229,62.927,57.246,62.927,57.264z M60.713,51.474c-0.007,0.137-0.014,0.274-0.021,0.411
					c-0.021,0.019-0.034,0.041-0.04,0.065c-0.007,0.023-0.011,0.049-0.018,0.073c-0.005-0.079-0.009-0.158-0.015-0.237
					C60.654,51.684,60.683,51.579,60.713,51.474z M51.391,52.917c-0.02,0.007-0.042,0.014-0.065,0.02
					c-0.013,0.002-0.025,0.002-0.038,0.003c-0.008-0.004-0.016-0.01-0.023-0.017h0.001C51.307,52.92,51.35,52.92,51.391,52.917z
					 M58.73,52.826c0.003-0.026,0.01-0.052,0.013-0.077c0.004-0.003,0.005-0.005,0.006-0.008c0.002,0.016,0.009,0.027,0.015,0.04
					C58.751,52.797,58.742,52.813,58.73,52.826z M57.571,53.057c0.05-0.022,0.1-0.045,0.147-0.069
					c-0.032,0.053-0.064,0.106-0.098,0.158c-0.029,0.018-0.055,0.037-0.076,0.057C57.554,53.155,57.563,53.106,57.571,53.057z
					 M57.018,52.402c0.075-0.01,0.147-0.022,0.223-0.034c-0.025,0.021-0.052,0.038-0.077,0.06c-0.092,0.034-0.184,0.067-0.275,0.104
					C56.932,52.488,56.974,52.444,57.018,52.402z M45.118,54.227c-0.034,0.021-0.064,0.042-0.091,0.064
					c-0.01-0.02-0.018-0.038-0.028-0.057C45.038,54.231,45.078,54.229,45.118,54.227z M44.904,55.808L44.904,55.808
					c0.021,0.002,0.043,0.004,0.063,0.004c0.606,0.025,1.21,0.046,1.817,0.059c0.73,0.017,1.458,0.043,2.182,0.073
					c0.275-0.019,0.554-0.035,0.828-0.051c0.058-0.003,0.115-0.008,0.172-0.01c0.292-0.018,0.585-0.03,0.878-0.043
					c0.031-0.001,0.063-0.003,0.098-0.004c0.4-0.017,0.806-0.033,1.209-0.044c0.27-0.01,0.541-0.018,0.812-0.024
					c1.536-0.039,3.074-0.066,4.608-0.141c0.164-0.009,0.328-0.023,0.491-0.04c0.848-0.088,1.69-0.274,2.533-0.392
					c0.481-0.02,0.965-0.05,1.447-0.093c0.011,0.002,0.024,0.002,0.035,0.007c0.01,0.001,0.019,0.004,0.027,0.008
					c0.03,0.013,0.061,0.027,0.086,0.044c0.072-0.023,0.134-0.039,0.185-0.048c0.103,0.147,0.183,0.301,0.248,0.459
					c0.023,0.27,0.034,0.648,0.044,1.131c0.007,0.392,0.019,0.865,0.039,1.435c0.045,1.191-0.003,3.053-0.108,5.03
					c-0.071,0.61-0.14,1.221-0.191,1.833c-0.09,1.105-0.144,2.212-0.19,3.317c-0.166,1.665-0.354,2.991-0.531,3.507
					c-0.05-0.001-0.098,0.021-0.115,0.084c-0.023,0.092-0.093,0.158-0.184,0.21c-0.14,0.045-0.348,0.095-0.613,0.142
					c-0.099,0-0.196,0.004-0.294,0.01c0-0.003,0-0.004,0-0.006c-0.021,0.005-0.04,0.005-0.061,0.008c-0.022,0-0.044,0-0.066,0.001
					c-0.024-0.001-0.049-0.003-0.072-0.009c-0.025,0.003-0.054,0.005-0.079,0.008c-0.007,0.01-0.015,0.017-0.022,0.022
					c-0.104,0.013-0.208,0.022-0.312,0.039h-0.001l0,0c-0.012,0.002-0.021,0.002-0.031,0.003c-0.025,0.006-0.045,0.019-0.06,0.034
					c-0.164,0.016-0.331,0.034-0.496,0.053c-0.202-0.003-0.4-0.016-0.603-0.033c-0.61,0.033-1.215,0.109-1.833,0.14l0,0
					c-0.379,0.058-0.758,0.11-1.139,0.159c-0.494,0.064-0.99,0.12-1.487,0.162l0,0c-0.323,0.029-0.646,0.054-0.973,0.069
					c-0.037,0.001-0.075,0.003-0.111,0.004l0,0c-0.273,0.013-0.547,0.021-0.82,0.032l0,0c-2.208,0.09-4.417,0.108-6.628,0.1
					c-0.039,0.003-0.079,0.007-0.118,0.01c-2.707,0.214-5.177-0.098-7.825-0.604c-0.328-0.061-0.654-0.129-0.979-0.198
					c-0.08,0.016-0.167,0.009-0.256-0.03c-0.035-0.016-0.069-0.031-0.102-0.05c-0.514-0.11-1.024-0.228-1.534-0.344
					c-0.013-0.003-0.025-0.007-0.038-0.01c0.006,0.019,0.012,0.035,0.018,0.055c-0.081-0.023-0.161-0.046-0.239-0.07
					c-0.003-0.013-0.01-0.025-0.017-0.038h-0.002l0,0c-0.133-0.031-0.265-0.061-0.398-0.091l0,0
					c-0.015-0.004-0.028-0.007-0.043-0.01c0,0-0.001,0-0.001-0.001c-0.025-0.006-0.051-0.012-0.076-0.016
					c-0.139-0.032-0.274-0.066-0.408-0.101c-0.002,0-0.003,0-0.005,0c-0.007-0.004-0.016-0.006-0.023-0.009
					c-0.15-0.038-0.295-0.08-0.44-0.127c-0.023-0.008-0.048-0.018-0.071-0.025c-0.003-0.002-0.005-0.003-0.008-0.003
					c-0.123-0.044-0.244-0.09-0.363-0.139c-0.014-0.008-0.029-0.015-0.045-0.022c-0.107-0.048-0.212-0.098-0.314-0.152
					c-0.127-0.071-0.25-0.145-0.37-0.228l0,0c-0.019-0.016-0.039-0.028-0.06-0.043c-0.535-0.169-1.08-0.392-1.318-0.799
					c-0.33-0.563-0.382-1.401-0.477-2.048c-0.068-0.762-0.143-1.688-0.215-2.695c-0.011-0.691,0.006-1.385,0.05-2.081
					c0.084-1.407-0.222-2.728-0.282-4.126c-0.065-1.496,0.115-2.993,0.365-4.467c0.063-0.069,0.156-0.112,0.268-0.135
					c0.001,0.01,0.004,0.021,0.006,0.03c0.027-0.013,0.056-0.021,0.088-0.026c0.021-0.006,0.044-0.007,0.066-0.007
					c0.01-0.002,0.019,0,0.03,0c0.032,0.001,0.065,0.007,0.098,0.016c0.003-0.002,0.008-0.002,0.011-0.003
					c0.016-0.012,0.034-0.019,0.051-0.027c0.454,0.027,1,0.197,1.237,0.246c0.448,0.092,0.894,0.181,1.345,0.257
					c0.167,0.035,0.333,0.075,0.5,0.11c0.231,0.016,0.464,0.033,0.695,0.05c0.728,0.074,1.457,0.118,2.187,0.16
					c0.657,0.049,1.317,0.099,1.974,0.147c0.124,0.011,0.247,0.021,0.371,0.03c0,0,0,0,0-0.003c1.073,0.082,2.144,0.155,3.216,0.222
					c0.002,0.002,0.002,0.002,0.002,0.003c0.159,0.012,0.318,0.019,0.478,0.027c0.149,0.01,0.3,0.02,0.448,0.029
					c-0.002-0.002-0.002-0.004-0.002-0.004c0.024,0,0.047,0.004,0.072,0.005l0.001,0.002c0.123,0.006,0.246,0.011,0.367,0.019
					c0.04,0.002,0.079,0.004,0.117,0.007c0-0.002,0-0.002,0-0.002C44.109,55.77,44.506,55.792,44.904,55.808z M55.375,77.559
					c-0.001,0-0.001,0-0.003,0c-0.003,0-0.007,0-0.007,0C55.367,77.559,55.372,77.559,55.375,77.559z M54.12,76.053
					c-0.048,0.122-0.097,0.242-0.145,0.363c-0.01-0.103-0.02-0.206-0.029-0.308C54.004,76.093,54.063,76.074,54.12,76.053z
					 M39.235,74.504c0.003,0.016,0.005,0.033,0.008,0.05c-0.005-0.003-0.008-0.003-0.012-0.003
					c-0.001-0.003-0.003-0.004-0.003-0.006c-0.001,0-0.001,0-0.001,0C39.23,74.531,39.231,74.517,39.235,74.504z M39.515,75.489
					c0.009,0.011,0.018,0.022,0.025,0.034c-0.004-0.006-0.009-0.007-0.014-0.01c-0.005-0.009-0.009-0.016-0.016-0.024
					C39.512,75.489,39.514,75.489,39.515,75.489z M36.504,76.674c0.014,0.009,0.028,0.015,0.042,0.021l0,0
					c-0.016,0.003-0.032,0.004-0.048,0.006c-0.015-0.008-0.028-0.016-0.041-0.023C36.474,76.678,36.488,76.678,36.504,76.674z
					 M44.752,79.074c0.058,0,0.115-0.002,0.175-0.003c-0.011,0.003-0.022,0.004-0.032,0.007
					C44.847,79.075,44.799,79.075,44.752,79.074z M61.108,72.447c0.006-0.001,0.013-0.003,0.019-0.004
					c-0.006,0.003-0.014,0.004-0.02,0.006L61.108,72.447z M40.707,52.718c-0.117,0.013-0.232,0.028-0.349,0.042
					c0.001-0.006,0.001-0.011,0.001-0.019c0.116-0.013,0.228-0.026,0.341-0.042C40.703,52.706,40.705,52.711,40.707,52.718z
					 M38.621,52.934c0.059,0.009,0.116,0.019,0.174,0.027c0.013,0.016,0.023,0.032,0.036,0.048
					c-0.019,0.004-0.036,0.008-0.055,0.013c-0.094-0.022-0.196-0.032-0.3-0.027c-0.002-0.017-0.002-0.032-0.003-0.046
					C38.523,52.943,38.571,52.938,38.621,52.934z M29.774,62.395c-0.018-0.332-0.033-0.664-0.049-0.995
					c0.019,0.162,0.035,0.325,0.043,0.489C29.777,62.057,29.777,62.226,29.774,62.395z M42.04,55.208
					c-0.058,0.004-0.115,0.013-0.175,0.025c0.001-0.013,0.001-0.024,0.001-0.035c0.054-0.028,0.092-0.063,0.113-0.102
					C41.998,55.135,42.021,55.171,42.04,55.208z M37.408,52.548c-0.098,0.044-0.158,0.089-0.079,0.111
					c0.03,0.009,0.06,0.015,0.089,0.022c-0.051,0.009-0.103,0.023-0.153,0.037c-0.024-0.063-0.057-0.126-0.097-0.184
					C37.248,52.539,37.329,52.545,37.408,52.548z M35.721,52.428c-0.01,0.071-0.018,0.143-0.024,0.213
					c-0.086-0.032-0.17-0.067-0.256-0.099c-0.022-0.051-0.045-0.102-0.068-0.151C35.488,52.403,35.603,52.416,35.721,52.428z
					 M54.549,79.631c-1.088,0.275-2.194,0.489-3.31,0.639c-2.2,0.298-4.439,0.359-6.657,0.211c-2.059-0.141-4.107-0.452-6.112-0.931
					c-1.176-0.279-2.737-0.616-3.692-1.463c0.153,0.033,0.307,0.065,0.455,0.095c0.911,0.186,1.836,0.324,2.763,0.419
					c2.05,0.544,4.216,0.727,6.353,0.802c0.025,0.018,0.057,0.025,0.094,0.02c0.023-0.006,0.047-0.009,0.071-0.013
					c0.126,0.004,0.252,0.009,0.376,0.013c2.985,0.083,6.003,0.087,8.962-0.309c1.293-0.171,2.626-0.393,3.861-0.78
					C57.446,79.062,55.106,79.491,54.549,79.631z"/>
			</g>
		</g>
	</g>
	<text transform="matrix(1 0 0 1 27.6465 88.8672)" fill="#5EA9A4" font-family="'LucidaCalligraphy-Italic'" font-size="8">T</text>
	<text transform="matrix(1 0 0 1 37.0332 88.8672)" fill="#5EA9A4" font-family="'LucidaCalligraphy-Italic'" font-size="8">I</text>
	<text transform="matrix(1 0 0 1 56.125 88.9922)" fill="#5EA9A4" font-family="'LucidaCalligraphy-Italic'" font-size="8">E</text>
	<text transform="matrix(1 0 0 1 43.6743 88.8672)" fill="#5EA9A4" font-family="'LucidaCalligraphy-Italic'" font-size="8">M</text>
</g>
</svg>
