<?xml version="1.0" encoding="utf-8"?>
<!-- Generator: Adobe Illustrator 16.0.0, SVG Export Plug-In . SVG Version: 6.00 Build 0)  -->
<!DOCTYPE svg PUBLIC "-//W3C//DTD SVG 1.1//EN" "http://www.w3.org/Graphics/SVG/1.1/DTD/svg11.dtd">
<svg version="1.1" id="Layer_1" xmlns="http://www.w3.org/2000/svg" xmlns:xlink="http://www.w3.org/1999/xlink" x="0px" y="0px"
	 width="93px" height="122px" viewBox="0 0 93 122" enable-background="new 0 0 93 122" xml:space="preserve">
<text transform="matrix(1 0 0 1 10.0864 112.333)" fill="#4F4E4E" font-family="'Leoscar-Sans-Serif'" font-size="14">Pesan Antar</text>
<g>
	<ellipse opacity="0.1" cx="46.438" cy="84.729" rx="36.416" ry="2.18"/>
</g>
<g>
	<path fill="#3F4443" d="M72.57,84.76c-4.436,0-8.044-3.607-8.044-8.043s3.608-8.043,8.044-8.043c4.435,0,8.043,3.607,8.043,8.043
		S77.005,84.76,72.57,84.76z M72.57,72.076c-2.56,0-4.641,2.081-4.641,4.641c0,2.559,2.081,4.641,4.641,4.641
		c2.559,0,4.64-2.082,4.64-4.641C77.21,74.157,75.129,72.076,72.57,72.076z"/>
	<circle fill="#AAAAAA" cx="71.396" cy="76.717" r="6.342"/>
	<g>
		<circle fill="#9B9B9B" cx="71.432" cy="76.874" r="1.805"/>
		<path fill="#C6C6C6" d="M71.432,79.452c-1.421,0-2.577-1.156-2.577-2.578c0-1.421,1.156-2.577,2.577-2.577
			c1.422,0,2.578,1.156,2.578,2.577C74.01,78.296,72.854,79.452,71.432,79.452z M71.432,75.843c-0.568,0-1.03,0.463-1.03,1.031
			c0,0.569,0.462,1.031,1.03,1.031c0.569,0,1.032-0.462,1.032-1.031C72.464,76.306,72.001,75.843,71.432,75.843z"/>
	</g>
	<path fill="#272727" d="M71.396,84.76c-4.436,0-8.043-3.607-8.043-8.043s3.607-8.043,8.043-8.043s8.044,3.607,8.044,8.043
		S75.831,84.76,71.396,84.76z M71.396,72.076c-2.559,0-4.641,2.081-4.641,4.641c0,2.559,2.082,4.641,4.641,4.641
		s4.641-2.082,4.641-4.641C76.036,74.157,73.954,72.076,71.396,72.076z"/>
	<g opacity="0.3">
		<path d="M80.527,76.982L80.527,76.982c0-4.786-3.835-8.679-8.55-8.679s-8.55,3.893-8.55,8.679l0,0H80.527z"/>
	</g>
</g>
<g>
	<path fill="#898989" d="M72.746,64.517c0,0,6.739,0.573,7.705,1.694l0.479,3.87L72.746,64.517z"/>
</g>
<g>
	<path fill="#ED9118" d="M72.555,64.342c-5.757,0-10.424,4.667-10.424,10.424h20.847C82.978,69.009,78.312,64.342,72.555,64.342z"/>
</g>
<g>
	<path fill="#F4AC4E" d="M74.61,64.546c-0.664-0.133-1.352-0.204-2.056-0.204c-5.757,0-10.424,4.667-10.424,10.424h4.113
		C66.244,69.713,69.84,65.501,74.61,64.546z"/>
</g>
<path fill="#F5A42C" d="M16.686,70.55c0,0,4.189-11.68,13.015-11.829h17.651c0,0-5.983,2.094-5.983,7.628s4.786,5.534,7.628,5.534
	s6.812,0,6.812,0s9.168,0.879,6.825-13.162L59.497,47.65l2.891,1.308l7.539,14.311l-0.331,1.19
	c-4.296,1.249-7.408,5.201-8.347,9.628c-2.297,0.976-8.464,1.087-14.197,1.087H15.49C15.49,75.174,15.838,72.371,16.686,70.55z"/>
<g>
	<path fill="#3F4443" d="M28.174,84.76c-4.436,0-8.044-3.607-8.044-8.043s3.608-8.043,8.044-8.043c4.435,0,8.043,3.607,8.043,8.043
		S32.608,84.76,28.174,84.76z"/>
	<circle fill="#AAAAAA" cx="26.999" cy="76.982" r="6.133"/>
	<path fill="#272727" d="M26.999,84.76c-4.289,0-7.777-3.488-7.777-7.777c0-4.29,3.488-7.778,7.777-7.778s7.778,3.488,7.778,7.778
		C34.777,81.271,31.288,84.76,26.999,84.76z M26.999,72.494c-2.475,0-4.487,2.014-4.487,4.488c0,2.474,2.013,4.487,4.487,4.487
		s4.487-2.014,4.487-4.487C31.486,74.508,29.474,72.494,26.999,72.494z"/>
</g>
<g>
	<path fill="#272727" d="M50.492,55.729c0,1.404-0.835,2.543-1.865,2.543H35.495c-1.03,0-1.864-1.139-1.864-2.543l0,0
		c0-1.404,0.785-3.015,1.814-3.015l13.16,1.849C50.491,54.738,50.492,55.729,50.492,55.729L50.492,55.729z"/>
</g>
<g>
	<path d="M46.973,56.588c-0.304,0-12.984-0.103-12.984-0.103c-0.096,0-0.188-0.013-0.281-0.029c0.228,1.049,0.942,1.816,1.788,1.816
		h13.132c1.025,0,1.856-1.123,1.864-2.512C49.422,56.444,48.281,56.588,46.973,56.588z"/>
</g>
<g>
	<circle fill="#9B9B9B" cx="26.999" cy="76.982" r="1.745"/>
	<path fill="#C6C6C6" d="M26.999,79.475c-1.375,0-2.493-1.118-2.493-2.492c0-1.375,1.118-2.493,2.493-2.493s2.493,1.118,2.493,2.493
		C29.492,78.356,28.374,79.475,26.999,79.475z M26.999,75.984c-0.55,0-0.997,0.447-0.997,0.998c0,0.55,0.447,0.997,0.997,0.997
		s0.997-0.447,0.997-0.997C27.996,76.432,27.549,75.984,26.999,75.984z"/>
</g>
<g opacity="0.3">
	<path d="M36.321,76.982L36.321,76.982c0-4.786-3.836-8.679-8.55-8.679c-4.715,0-8.55,3.893-8.55,8.679l0,0H36.321z"/>
</g>
<g>
	<g>
		<path fill="#ED9118" d="M34.736,74.276c0,0,15.146,0.92,21.121-0.598c5.974-1.518,7.599-6.459,7.048-12.905
			c0,12.266-7.098,11.109-7.098,11.109s-3.97,0-6.812,0s-7.628,0-7.628-5.534s5.983-7.628,5.983-7.628H29.7
			C20.875,58.87,16.686,70.55,16.686,70.55c-0.848,1.821-1.195,4.624-1.195,4.624h19.52L34.736,74.276z"/>
	</g>
</g>
<path fill="#E04D46" d="M24.565,60.217h-3.699c0,0-3.88,1.695-2.583,3.589c0,0,1.595,1.197,2.094,0.599L24.565,60.217z"/>
<g>
	<path fill="#898989" d="M22.032,60.217c-0.31,0.518-2.453,3.277-3.522,3.747c0.458,0.303,1.484,0.899,1.867,0.44l4.188-4.188
		H22.032z"/>
</g>
<g>
	<path fill="#F9A435" d="M35.445,61.411c-10.88-2.316-17.67,8.609-17.67,14.204h20.261C42.1,70.467,42.108,62.83,35.445,61.411z"/>
</g>
<path fill="#F4AC4E" d="M35.639,63.054c-9.893-2.107-16.402,6.733-17.503,12.562h-0.36c0-5.595,6.79-16.521,17.67-14.204
	c3.67,0.782,5.313,3.451,5.371,6.55C40.283,65.595,38.64,63.692,35.639,63.054z"/>
<g>
	<g>
		<path fill="#E58910" d="M47.352,58.272c-3.289,0-6.577,0-9.865,0c-2.643,0-5.354-0.179-7.991,0.01
			c-8.482,0.607-13.034,9.403-14.438,16.772c-0.107,0.565,0.758,0.807,0.865,0.238c1.305-6.853,5.614-15.8,13.748-16.123
			c5.874-0.233,11.801,0,17.681,0C47.93,59.17,47.93,58.272,47.352,58.272L47.352,58.272z"/>
	</g>
</g>
<path fill="#4E4E50" d="M53.298,48.167c0.11,0.398,0.576,0.645,1.041,0.55l5.533-1.134c0.464-0.095,0.75-0.495,0.64-0.894l0,0
	c-0.11-0.398-0.576-0.645-1.04-0.549l-5.534,1.134C53.474,47.369,53.188,47.769,53.298,48.167L53.298,48.167z"/>
<path fill="#282828" d="M53.298,48.167c0.11,0.398,0.576,0.645,1.041,0.55l5.533-1.134c0.464-0.095,0.75-0.495,0.64-0.894l0,0
	L53.298,48.167L53.298,48.167z"/>
<g>
	<path fill="#ED9118" d="M65.344,46.216c0.276,1.601-0.798,3.122-2.398,3.397c-1.602,0.275-3.631-0.711-3.906-2.312
		c-0.276-1.601,1.307-3.21,2.907-3.485S65.068,44.616,65.344,46.216z"/>
</g>
<path fill="#ED9118" d="M61.946,44.92c-1.286,0.222-2.558,1.304-2.866,2.551c-0.015-0.057-0.031-0.111-0.041-0.169
	c-0.276-1.601,1.307-3.21,2.907-3.485s3.122,0.799,3.397,2.399c0.063,0.358,0.053,0.712-0.012,1.05
	C65.031,45.696,63.529,44.648,61.946,44.92z"/>
<path fill="#677677" d="M61.946,43.817c1.601-0.275,3.122,0.799,3.397,2.399c0.276,1.601-0.798,3.122-2.398,3.397L61.946,43.817z"/>
<path fill="#4E4E50" d="M63.29,45.158c0.512,0,0.997-0.102,1.451-0.28c0.302,0.375,0.516,0.83,0.603,1.339
	c0.276,1.601-0.798,3.122-2.398,3.397l-0.776-4.504C62.529,45.145,62.902,45.158,63.29,45.158z"/>
<path fill="#98D8D6" d="M63.219,43.88c1.067,0.292,1.925,1.174,2.125,2.336c0.2,1.163-0.313,2.28-1.222,2.912L63.219,43.88z"/>
<path fill="#BDF2EF" d="M63.459,45.275l-0.24-1.395c1.067,0.292,1.925,1.174,2.125,2.336c0.069,0.396,0.052,0.788-0.033,1.156
	C65.082,46.377,64.365,45.609,63.459,45.275z"/>
<path fill="#CC7B1B" d="M58.64,47.978c0.051,0.266,0.341,0.454,0.648,0.42l0,0c0.308-0.034,0.517-0.278,0.467-0.545l-0.283-1.506
	c-0.05-0.267-0.34-0.456-0.648-0.422l0,0c-0.308,0.035-0.517,0.279-0.466,0.546L58.64,47.978z"/>
<g>
	<path fill="#FFFFFF" d="M32.546,64.926c0,0.121,0.099,0.22,0.22,0.22h1.957c0.122,0,0.22-0.099,0.22-0.22l0,0
		c0-0.122-0.098-0.22-0.22-0.22h-1.957C32.645,64.706,32.546,64.804,32.546,64.926L32.546,64.926z"/>
	<path fill="#FFFFFF" d="M32.546,71.139c0,0.121,0.099,0.22,0.22,0.22h1.957c0.122,0,0.22-0.099,0.22-0.22l0,0
		c0-0.122-0.098-0.221-0.22-0.221h-1.957C32.645,70.918,32.546,71.017,32.546,71.139L32.546,71.139z"/>
	<path fill="#FFFFFF" d="M30.735,65.953c0,0.121,0.1,0.22,0.221,0.22h5.283c0.122,0,0.221-0.099,0.221-0.22l0,0
		c0-0.122-0.099-0.221-0.221-0.221h-5.283C30.835,65.732,30.735,65.831,30.735,65.953L30.735,65.953z"/>
	<path fill="#FFFFFF" d="M30.124,66.98c0,0.121,0.099,0.22,0.221,0.22h6.433c0.122,0,0.221-0.099,0.221-0.22l0,0
		c0-0.122-0.099-0.221-0.221-0.221h-6.433C30.223,66.76,30.124,66.858,30.124,66.98L30.124,66.98z"/>
	<path fill="#FFFFFF" d="M29.904,68.057c0,0.121,0.099,0.22,0.22,0.22h6.837c0.121,0,0.221-0.099,0.221-0.22l0,0
		c0-0.122-0.1-0.221-0.221-0.221h-6.837C30.003,67.836,29.904,67.935,29.904,68.057L29.904,68.057z"/>
	<path fill="#FFFFFF" d="M30.308,69.035c0,0.121,0.099,0.22,0.22,0.22h6.25c0.122,0,0.221-0.099,0.221-0.22l0,0
		c0-0.122-0.099-0.221-0.221-0.221h-6.25C30.406,68.814,30.308,68.913,30.308,69.035L30.308,69.035z"/>
	<path fill="#FFFFFF" d="M30.943,70.063c0,0.121,0.099,0.22,0.221,0.22h5.075c0.122,0,0.221-0.099,0.221-0.22l0,0
		c0-0.122-0.099-0.221-0.221-0.221h-5.075C31.042,69.842,30.943,69.94,30.943,70.063L30.943,70.063z"/>
</g>
<g>
	<polygon fill="#666666" points="16.131,57.548 24.063,60.217 27.466,58.2 	"/>
</g>
<g>
	<path fill="#898989" d="M32.834,57.548c0,0.448-0.386,0.811-0.862,0.811H11.942c-0.476,0-0.862-0.362-0.862-0.811l0,0
		c0-0.447,0.387-0.81,0.862-0.81h20.029C32.448,56.738,32.834,57.101,32.834,57.548L32.834,57.548z"/>
</g>
<rect x="11.942" y="42.304" fill="#13669E" width="20.231" height="14.434"/>
<polygon fill="#DBDBDB" points="30.249,54.88 30.249,42.304 32.174,42.304 32.174,56.738 11.942,56.738 11.942,54.88 "/>
<path fill="#CE996A" d="M52.891,36.662c0,0-1.776,5.826,0.178,6.294c1.954,0.469,4.96-2.403,7.587-7.526l0.554-2.095
	c0,0-0.732,0.275-1.876,1.386c-1.143,1.108-3.086,3.069-4.085,3.702l0.273-3.05L52.891,36.662z"/>
<path fill="#BFBFBF" d="M42.314,45.158c0,0-1.056,15.004,1.948,22.599l14.902,11.049l0.56-2.11L48.14,65.512
	c0,0-1.728-6.828-0.854-11.002l2.309-0.532c0,0,0.475,19.271,1.425,30.115h2.128c0,0,2.106-30.374,0.864-37.103
	C52.77,40.259,42.314,45.158,42.314,45.158z"/>
<g>
	<path fill="#969696" d="M50.046,67.352l1.765,1.463c-0.302-7.27-0.577-15.132-0.577-15.132l-1.639,0.295
		C49.63,55.306,49.835,61.953,50.046,67.352z"/>
	<path fill="#969696" d="M51.593,71.883c-0.023,0.429,0.525,1.272,0.503,1.682l7.069,5.241l0.29-1.093L51.593,71.883z"/>
	<path fill="#969696" d="M52.027,72.206l-6.001-4.449c-3.004-7.595-1.947-22.599-1.947-22.599s3.019-1.413,6.004-1.678
		c-3.422-0.358-7.769,1.678-7.769,1.678s-1.056,15.004,1.948,22.599l6.001,4.449c0.205,4.222,0.457,8.472,0.756,11.887h1.765
		C52.485,80.678,52.232,76.428,52.027,72.206z"/>
</g>
<path fill="#7F5D46" d="M51.02,84.093v1.59c0,0,4.084,2.265,7.084,2.648c0,0,0.46-2.119-4.73-3.57l-0.226-0.668H51.02z"/>
<path fill="#685141" d="M52.854,84.093H51.02v1.59c0,0,1.113,0.617,2.603,1.261C53.169,86.092,52.896,85.127,52.854,84.093z"/>
<path fill="#513A2A" d="M51.02,85.193v0.489c0,0,4.084,2.265,7.084,2.648c0,0,0.04-0.19-0.041-0.495
	C55.066,87.438,51.02,85.193,51.02,85.193z"/>
<path fill="#7F5D46" d="M59.594,77.189l2.997,2.197c0,0-0.82,4.269-2.146,4.706h-3.263c0,0-0.049-1.284,2.171-1.895l0.745-3.113
	l-0.842-0.623L59.594,77.189z"/>
<path fill="#685141" d="M59.909,79.87c0.802,0.504,1.492,1.168,2.022,1.949c0.424-1.205,0.659-2.433,0.659-2.433l-2.997-2.197
	l-0.338,1.272l0.842,0.623L59.909,79.87z"/>
<g>
	<path fill="#513A2A" d="M62.242,79.131c-0.117,0.571-0.909,4.225-2.133,4.628h-2.865c-0.067,0.2-0.063,0.334-0.063,0.334h3.263
		c1.326-0.438,2.146-4.706,2.146-4.706L62.242,79.131z"/>
</g>
<path fill="#29ABE2" d="M42.217,48.816c0,0,6.646,2.648,12.481,1.267c0,0-2.338-10.975-0.803-17.423c0,0-5.765-5.006-10.96-1.782
	C42.936,30.877,39.889,33.5,42.217,48.816z"/>
<path fill="#13669E" d="M50.591,44.848c-2.478-0.82-4.533-2.444-5.868-4.547c-1.094-1.306-1.811-2.667-1.853-4.453
	c-0.016-0.661,0.068-1.317,0.242-1.947c0.184-1.497,0.88-2.86,1.906-3.901c-0.695,0.168-1.395,0.45-2.083,0.877
	c0,0-3.047,2.622-0.719,17.938c0,0,6.646,2.648,12.481,1.267c0,0-0.44-2.065-0.813-4.93C52.737,45.274,51.571,45.173,50.591,44.848z
	"/>
<path fill="#E2B07F" d="M35.932,52.018c0.88,0.584,0.18,0.499,0.667,1.425c0.104-0.064,2.221-0.863,2.274-0.977
	c1.354-2.847,3.282-18.617,3.282-18.617s-0.32-0.363-0.33-0.622c-0.418,0.037-0.85,0.051-1.299,0.051
	c-0.204,0,1.511-2.622,1.313-2.646c-0.013,0.2-2.298,0.201-2.679,3.075C37.6,45.496,38.01,52.09,35.932,52.018z"/>
<g>
	<path fill="#CC9364" d="M41.825,33.227c-0.418,0.037-0.85,0.05-1.299,0.05c-0.204,0,1.511-2.621,1.313-2.645
		c-0.009,0.146-1.234,0.188-2.041,1.324c0.616-0.378,1.184-0.429,1.189-0.528c0.198,0.024-1.518,2.645-1.313,2.645
		c0.448,0,0.88-0.013,1.299-0.05c0.01,0.259,0.329,0.622,0.329,0.622s-1.752,14.339-3.089,18.139c0.358-0.15,0.64-0.278,0.658-0.318
		c1.354-2.847,3.282-18.617,3.282-18.617S41.835,33.486,41.825,33.227z"/>
	<path fill="#CC9364" d="M36.092,52.007c-0.052,0.008-0.104,0.013-0.16,0.011c0.043,0.029,0.08,0.055,0.115,0.08
		C36.063,52.068,36.077,52.038,36.092,52.007z"/>
</g>
<path fill="#29ABE2" d="M45.066,28.283c0,0-3.03-0.958-4.742,1.27c-0.754,1.088-1.738,1.752-2.132,5.93c0,0,1.243,1.325,3.861,1.317
	l0.979-2.214l9.237,0.121l0.684,2.962l2.987-1.247c0,0,1.2-4.696-2.74-5.953C51.417,29.9,45.066,28.283,45.066,28.283z"/>
<path fill="#13669E" d="M42.87,34.283c0.033-2.269,0.481-4.205,1.203-6.18c-1.036-0.095-2.659,0.032-3.749,1.45
	c-0.754,1.088-1.738,1.752-2.132,5.93c0,0,1.243,1.325,3.861,1.317l0.841-1.903C42.876,34.695,42.867,34.49,42.87,34.283z"/>
<path fill="#E2B07F" d="M36.196,51.984c0,0-2.339,0.187-2.284,1.649c0,0,0.239,1.963,0.499,1.64c0,0,0.393-0.136,0.216-1.64
	c0,0-0.044,1.955,0.748,1.961c0.273,0.002,0.188-1.975,0.188-1.975s0.14,1.971,0.912,1.975c0.349,0.002,0.096-1.948,0.096-1.948
	s2.131,0.018,2.303-1.18C39.045,51.27,36.196,51.984,36.196,51.984z"/>
<path fill="#CC9364" d="M38.534,51.889c-0.809,0.913-2.602,1.073-3.619,1.073c-0.228,0-0.494-0.025-0.777-0.073
	c-0.147,0.201-0.236,0.445-0.226,0.744c0,0,0.239,1.963,0.499,1.64c0,0,0.247-0.088,0.26-0.878c0.07,0.55,0.25,1.196,0.704,1.199
	c0.273,0.002,0.188-1.975,0.188-1.975s0.14,1.971,0.912,1.975c0.349,0.002,0.096-1.948,0.096-1.948s2.131,0.018,2.303-1.18
	C38.916,52.17,38.772,51.992,38.534,51.889z"/>
<g>
	<polygon fill="#6D6D6D" points="57.79,37.683 57.593,34.499 64.366,34.08 64.563,37.265 64.368,37.277 64.183,34.288 
		57.801,34.681 57.985,37.671 	"/>
</g>
<polygon fill="#272727" points="57.571,37.34 64.738,36.897 63.764,42.553 59.233,42.833 "/>
<path fill="#E2B07F" d="M45.204,28.318c0,0-0.414,3.201,2.816,3.441c3.23,0.24,2.506-2.061,2.506-2.061L45.204,28.318z"/>
<path fill="#E2B07F" d="M44.939,19.796c-1.071,3.575,0.504,7.332,3.592,8.131c3.534,0.915,6.401-1.239,7.474-4.814
	c1.071-3.575-0.536-7.215-3.592-8.131S46.012,16.221,44.939,19.796z"/>
<path fill="#CC9364" d="M46.227,23.691c0.087-0.667,0.251-1.333,0.467-1.969c0.213-0.628,0.576-1.209,0.921-1.767
	c0.559-0.764,1.269-1.343,2.128-1.738c0.462-0.138,0.923-0.275,1.384-0.414c1.404-0.222,2.855,0.126,4.005,0.962
	c0.437,0.317,0.818,0.697,1.139,1.124c-0.316-2.326-1.738-4.272-3.856-4.907c-3.056-0.916-6.401,1.239-7.474,4.814
	c-0.895,2.986,0.058,6.098,2.196,7.508C46.423,26.272,46.059,25.002,46.227,23.691z"/>
<path fill="#CC9364" d="M47.001,27.269l-0.513,2.526l2.446,0.836l0.508-2.415C48.526,28.179,47.696,27.823,47.001,27.269z"/>
<path fill="#E2B07F" d="M48.269,28.777c-0.535,0-1.042-0.11-1.512-0.304l-0.269,1.322l2.446,0.836l0.398-1.897
	C48.99,28.766,48.636,28.777,48.269,28.777z"/>
<path fill="#99704F" d="M44.607,22.708c0.231,0.757,0.528,1.479,0.883,2.159c0.091,0.168,0.189,0.332,0.287,0.494
	c0.1,0.161,0.202,0.319,0.314,0.47c0.053,0.077,0.112,0.149,0.171,0.222c0.057,0.074,0.118,0.144,0.18,0.213
	c0.119,0.142,0.249,0.271,0.382,0.397l0.203,0.182l0.214,0.167c0.148,0.102,0.295,0.207,0.453,0.29
	c0.077,0.046,0.156,0.087,0.238,0.122s0.159,0.081,0.244,0.107l0.251,0.092l0.259,0.068c0.085,0.027,0.174,0.04,0.262,0.056
	c0.089,0.014,0.176,0.038,0.267,0.042c0.18,0.017,0.359,0.035,0.542,0.031c0.182,0.011,0.366-0.013,0.55-0.021
	c0.184-0.012,0.367-0.047,0.552-0.069l-0.034,0.009l0.555-0.173l0.278-0.084c0.096-0.023,0.181-0.065,0.271-0.099l0.537-0.211
	c0.167-0.089,0.339-0.172,0.511-0.259c0.09-0.038,0.161-0.099,0.243-0.149l0.239-0.158c0.082-0.05,0.148-0.119,0.224-0.177
	c0.072-0.063,0.152-0.12,0.22-0.189c0.066-0.07,0.134-0.14,0.204-0.209c0.071-0.067,0.133-0.145,0.198-0.22l0.395-0.455
	c-0.087,0.183-0.172,0.363-0.269,0.541c-0.049,0.089-0.093,0.18-0.149,0.266c-0.055,0.087-0.111,0.173-0.168,0.259
	c-0.059,0.085-0.13,0.16-0.195,0.242c-0.068,0.077-0.129,0.166-0.206,0.234l-0.232,0.209c-0.079,0.068-0.153,0.147-0.241,0.201
	c-0.17,0.117-0.34,0.24-0.517,0.353l-0.549,0.286c-0.093,0.046-0.184,0.101-0.278,0.135l-0.285,0.115l-0.573,0.224l-0.013,0.004
	L51,28.429c-0.203,0.036-0.404,0.084-0.611,0.11c-0.208,0.021-0.415,0.049-0.626,0.046c-0.105,0-0.211,0.008-0.316,0.001
	l-0.318-0.025c-0.105-0.004-0.21-0.03-0.315-0.045c-0.105-0.019-0.212-0.032-0.314-0.064l-0.31-0.086l-0.302-0.113
	c-0.102-0.035-0.195-0.089-0.292-0.134c-0.099-0.045-0.191-0.098-0.282-0.155c-0.186-0.106-0.357-0.234-0.525-0.365l-0.239-0.209
	c-0.076-0.073-0.15-0.148-0.224-0.224c-0.143-0.155-0.279-0.313-0.401-0.482c-0.064-0.083-0.122-0.168-0.177-0.256
	c-0.056-0.087-0.113-0.173-0.163-0.264c-0.104-0.177-0.198-0.359-0.287-0.542c-0.088-0.184-0.161-0.375-0.231-0.564
	c-0.068-0.19-0.133-0.381-0.187-0.575c-0.051-0.194-0.099-0.389-0.138-0.585c-0.043-0.195-0.067-0.395-0.094-0.592
	C44.623,23.106,44.608,22.907,44.607,22.708z"/>
<path fill="#66452E" d="M47.494,27.183c-0.085-0.055-0.169-0.112-0.253-0.17l-0.214-0.167l-0.203-0.182
	c-0.133-0.125-0.263-0.255-0.382-0.397c-0.062-0.069-0.123-0.139-0.18-0.213c-0.059-0.073-0.118-0.145-0.171-0.222
	c-0.112-0.151-0.215-0.31-0.314-0.47c-0.098-0.162-0.196-0.326-0.287-0.494c-0.354-0.679-0.651-1.401-0.883-2.159
	c0.001,0.199,0.016,0.398,0.039,0.595c0.026,0.197,0.051,0.396,0.094,0.592c0.039,0.196,0.087,0.391,0.138,0.585
	c0.054,0.194,0.118,0.385,0.187,0.575c0.07,0.189,0.144,0.38,0.231,0.564c0.089,0.183,0.183,0.365,0.287,0.542
	c0.05,0.09,0.107,0.176,0.163,0.264c0.055,0.088,0.112,0.173,0.177,0.256c0.122,0.168,0.259,0.327,0.401,0.482
	c0.073,0.075,0.147,0.15,0.224,0.224l0.239,0.209c0.168,0.131,0.34,0.258,0.525,0.365c0.091,0.058,0.184,0.11,0.282,0.155
	c0.047,0.022,0.094,0.046,0.141,0.069C47.625,27.856,47.543,27.52,47.494,27.183z"/>
<path fill="#29ABE2" d="M57.272,20.419c0.043-3.033-1.736-5.724-4.605-6.521c-3.564-0.99-7.465,1.317-8.751,5.158
	c0,0-0.754,2.398,0,4.601c0,0,1.517-1.891,2.324-3.902l0,0l2.792-0.907l4.231,1.582l1.052,1.997l0,0
	c-0.288,0.953-0.5,2.426,0.383,3.579C54.698,26.005,57.604,23.657,57.272,20.419z"/>
<path fill="#29ABE2" d="M48.845,18.286c0.155-1.386,0.861-2.679,1.939-3.563c0.524-0.43,1.063-0.709,1.626-0.888
	c-3.493-0.813-7.238,1.473-8.494,5.222c0,0-0.754,2.398,0,4.601c0,0,1.517-1.891,2.324-3.902l0,0l2.579-0.838
	C48.814,18.704,48.821,18.493,48.845,18.286z"/>
<g>
	<path fill="#13669E" d="M44.331,24.072c0.344-0.414,0.656-0.852,0.959-1.295c0.634-0.927,0.998-1.966,1.557-2.92
		c0.555-0.947,3.001-0.285,3.752-0.072c0.759,0.215,1.476,0.544,2.133,0.979c0.263,0.174,1.21,0.985,1.084,1.299
		c-0.583,1.445-0.502,3.115,0.467,4.356c0.466,0.596,1.291-0.241,0.83-0.83c-1.142-1.462,0.311-2.988-0.455-4.48
		c-0.713-1.389-2.534-2.113-3.938-2.511c-1.325-0.375-3.123-0.637-4.359,0.141c-0.738,0.465-0.935,1.48-1.32,2.201
		c-0.433,0.807-0.953,1.596-1.538,2.302C43.021,23.82,43.848,24.655,44.331,24.072L44.331,24.072z"/>
</g>
<g>
	<path fill="#13669E" d="M55.112,25.59c-1.142-1.462,0.311-2.988-0.455-4.48c-0.713-1.389-2.534-2.113-3.938-2.511
		c-0.565-0.16-1.216-0.298-1.872-0.345c0.059,0.391,0.073,0.781,0.041,1.161c0.695,0.09,1.374,0.276,1.711,0.371
		c0.759,0.215,1.476,0.544,2.133,0.979c0.263,0.174,1.21,0.985,1.084,1.299c-0.583,1.445-0.502,3.115,0.467,4.356
		C54.748,27.016,55.573,26.179,55.112,25.59z"/>
</g>
<g>
	<path d="M46.497,21.666c0,0-0.081-0.257,0.093-0.591c0.084-0.167,0.244-0.339,0.472-0.462c0.117-0.041,0.244-0.102,0.378-0.12
		c0.13-0.004,0.265-0.004,0.398,0l0.013,0.001l0.086,0.021l0.017,0.006l0.034,0.013l0.067,0.026l0.133,0.051
		c0.111,0.041,0.288,0.197,0.391,0.304c0.173,0.242,0.217,0.494,0.188,0.683c-0.049,0.38-0.265,0.539-0.265,0.539
		s-0.133-0.229-0.296-0.417c-0.084-0.096-0.187-0.153-0.253-0.185c-0.047,0.008-0.006,0.026-0.067-0.007l-0.139-0.035l-0.07-0.018
		l-0.035-0.009l-0.018-0.004l-0.002,0c0.033,0.008-0.075-0.019,0.074,0.018h-0.001l-0.003,0h-0.006
		c-0.12-0.02-0.228-0.025-0.342-0.036c-0.111,0.007-0.236,0.017-0.364,0.048C46.733,21.559,46.497,21.666,46.497,21.666z"/>
</g>
<g>
	<path d="M50.899,22.678c0,0-0.057-0.264,0.147-0.58c0.1-0.158,0.275-0.314,0.514-0.415c0.12-0.03,0.253-0.078,0.388-0.083
		c0.129,0.008,0.263,0.02,0.396,0.037l0.012,0.002l0.084,0.028l0.017,0.008l0.032,0.016l0.064,0.032l0.128,0.063
		c0.106,0.052,0.268,0.224,0.36,0.339c0.148,0.257,0.168,0.512,0.123,0.698c-0.085,0.374-0.314,0.512-0.314,0.512
		s-0.11-0.24-0.256-0.443c-0.074-0.104-0.171-0.17-0.233-0.208c-0.048,0.004-0.01,0.025-0.066-0.013l-0.136-0.048l-0.067-0.024
		l-0.034-0.012l-0.018-0.006l-0.002,0l-0.001,0c0.146,0.051,0.04,0.014,0.072,0.025h-0.003l-0.005,0
		c-0.119-0.031-0.225-0.046-0.338-0.068c-0.111-0.003-0.236-0.005-0.367,0.013C51.145,22.594,50.899,22.678,50.899,22.678z"/>
</g>
<path d="M46.5,20.23c0,0,0.624-1.59,2.795-0.604l-0.436,0.55C48.859,20.176,47.88,19.759,46.5,20.23z"/>
<path d="M53.631,22.032c0,0,0.161-1.7-2.22-1.802l0.139,0.688C51.55,20.917,52.612,20.988,53.631,22.032z"/>
<path fill="#CC9364" d="M49.949,22.827c0,0-0.038,0.499,0.324,0.5c0.363,0,0.22,0.559-0.224,0.551
	c-0.444-0.009-0.581-0.748-0.475-0.977S49.983,22.501,49.949,22.827z"/>
<path fill="#FFFFFF" d="M46.805,23.911c0,0,2.874,1.74,4.995,1.329c0,0-0.881,1.058-2.505,0.765
	C47.257,25.638,46.805,23.911,46.805,23.911z"/>
<g>
	<path fill="#CC9364" d="M47.897,26.056c0,0,0.224-0.06,0.475-0.074c0.128-0.007,0.267-0.007,0.405,0.005
		c0.14,0.016,0.272,0.035,0.406,0.064c0.129,0.047,0.249,0.054,0.367,0.12c0.11,0.031,0.216,0.074,0.328,0.136
		c0.186,0.056,0.426,0.149,0.426,0.149s-0.057,0.207-0.32,0.416c-0.125,0.073-0.297,0.145-0.483,0.179
		c-0.174,0.016-0.374,0.011-0.551-0.028c-0.171-0.06-0.349-0.109-0.482-0.213c-0.141-0.089-0.258-0.198-0.342-0.312
		C47.944,26.282,47.897,26.056,47.897,26.056z"/>
</g>
<path fill="#CE996A" d="M59.511,34.598c0,0,0.237,0.788,0.54,0.977c0.679,0.42,1.983-0.049,1.923-0.682S59.511,34.598,59.511,34.598
	z"/>
<path fill="#E2B07F" d="M63.057,33.42c-0.059-0.01-0.277-0.014-0.49-0.02c-0.02-0.004-0.037-0.009-0.057-0.011
	c-0.913-0.106-1.643-0.169-2.13,0.201c-0.487,0.369-0.72,0.779-0.72,0.779c1.494-0.212,0.917,1.063,0.917,1.063
	c-0.293,1.135,0.71,0.343,0.71,0.343c0.469,0.516,0.844-0.073,0.844-0.073c0.183,0.299,0.437,0.263,0.606-0.006
	c0.068,0.031,0.006-0.031,0,0C63.336,36.647,64.563,33.685,63.057,33.42z"/>
</svg>
