<?xml version="1.0" encoding="utf-8"?>
<!-- Generator: Adobe Illustrator 16.0.0, SVG Export Plug-In . SVG Version: 6.00 Build 0)  -->
<!DOCTYPE svg PUBLIC "-//W3C//DTD SVG 1.1//EN" "http://www.w3.org/Graphics/SVG/1.1/DTD/svg11.dtd">
<svg version="1.1" id="Layer_1" xmlns="http://www.w3.org/2000/svg" xmlns:xlink="http://www.w3.org/1999/xlink" x="0px" y="0px"
	 width="93px" height="122px" viewBox="0 0 93 122" enable-background="new 0 0 93 122" xml:space="preserve">
<text transform="matrix(1 0 0 1 13.4536 112.333)" fill="#4F4E4E" font-family="'Leoscar-Sans-Serif'" font-size="14">Restaurant</text>
<path fill="#BBBDBF" d="M46.504,85.82c-3.067,0-6.121-0.468-9.075-1.39c-3.973-1.242-7.575-3.231-10.712-5.915l-0.001,0.002
	l-0.501-0.439h0.001c-8.883-7.944-12.325-20.376-8.771-31.773c1.974-6.318,5.842-11.703,11.188-15.573
	c5.168-3.74,11.511-5.8,17.858-5.8c3.068,0,6.122,0.467,9.079,1.391c4.085,1.277,7.773,3.34,10.963,6.13
	c9.07,7.936,12.61,20.494,9.02,31.992c-1.974,6.318-5.843,11.702-11.188,15.574c-5.168,3.74-11.511,5.801-17.858,5.801
	C46.505,85.82,46.505,85.82,46.504,85.82z M31.709,72.323c2.353,2.059,5.075,3.578,8.09,4.515c2.177,0.682,4.428,1.026,6.69,1.026
	c9.898,0,18.527-6.344,21.474-15.788c2.653-8.495,0.038-17.774-6.663-23.64c-2.36-2.063-5.085-3.586-8.1-4.525
	c-2.196-0.686-4.459-1.034-6.729-1.034c-3.589,0-7.19,0.893-10.412,2.582c-5.32,2.789-9.236,7.482-11.024,13.216
	c-2.654,8.497-0.038,17.777,6.664,23.642L31.709,72.323z"/>
<linearGradient id="SVGID_1_" gradientUnits="userSpaceOnUse" x1="16.3887" y1="55.376" x2="76.6113" y2="55.376">
	<stop  offset="0" style="stop-color:#3399CC"/>
	<stop  offset="1" style="stop-color:#1580AA"/>
</linearGradient>
<path fill="url(#SVGID_1_)" d="M26.684,78.048l4.796-5.479c-6.799-5.952-9.456-15.371-6.764-23.993
	c1.816-5.819,5.79-10.582,11.188-13.411c5.4-2.831,11.577-3.388,17.396-1.571c3.063,0.955,5.827,2.502,8.218,4.593
	c6.8,5.95,9.456,15.367,6.763,23.988c-3.749,12.012-16.57,18.734-28.581,14.981c-3.066-0.952-5.831-2.498-8.22-4.588L26.684,78.048
	 M26.684,78.048c3.061,2.675,6.714,4.774,10.845,6.064c15.869,4.952,32.75-3.896,37.707-19.767
	c3.665-11.738-0.224-24.032-8.92-31.641c-3.06-2.678-6.715-4.772-10.844-6.065C39.6,21.686,22.719,30.535,17.764,46.405
	C14.101,58.146,17.987,70.438,26.684,78.048L26.684,78.048z"/>
<linearGradient id="SVGID_2_" gradientUnits="userSpaceOnUse" x1="16.3887" y1="48.8428" x2="68.585" y2="48.8428">
	<stop  offset="0.0123" style="stop-color:#41BBE5"/>
	<stop  offset="0.2699" style="stop-color:#30B0CE"/>
	<stop  offset="1" style="stop-color:#377DBC"/>
</linearGradient>
<path fill="url(#SVGID_2_)" d="M26.288,66.084c-5.844-11.145-1.529-24.966,9.615-30.804c2.842-1.493,5.89-2.355,9.059-2.567
	c8.905-0.594,17.334,4.07,21.579,11.894c1.032-3.053,1.723-6.262,2.044-9.578c-6.205-6.709-15.128-10.182-24.107-9.583
	c-4.055,0.271-8.123,1.371-11.956,3.379C17.797,36.545,12.117,54.74,19.836,69.467c0.36,0.688,0.747,1.357,1.153,2.006
	c3.234,0.687,6.599,0.961,10.041,0.777C29.141,70.508,27.522,68.438,26.288,66.084z"/>
<path fill="#29ABE2" d="M40.308,71.914c-9.24-3.572-13.959-13.774-10.833-23.072c-0.103,0.243-0.209,0.487-0.306,0.738
	c-3.676,9.503,1.046,20.186,10.551,23.862c9.502,3.677,20.188-1.048,23.862-10.553c0.099-0.253,0.189-0.511,0.276-0.767
	C59.919,71.116,49.556,75.494,40.308,71.914z"/>
<linearGradient id="SVGID_3_" gradientUnits="userSpaceOnUse" x1="50.6699" y1="70.9141" x2="50.5449" y2="70.6641">
	<stop  offset="0.2634" style="stop-color:#4DB3DB"/>
	<stop  offset="0.9946" style="stop-color:#1084B2"/>
</linearGradient>
<path opacity="0.1" fill="url(#SVGID_3_)" d="M40.308,71.914c-9.24-3.572-13.959-13.774-10.833-23.072
	c-0.103,0.243-0.209,0.487-0.306,0.738c-3.676,9.503,1.046,20.186,10.551,23.862c9.502,3.677,20.188-1.048,23.862-10.553
	c0.099-0.253,0.189-0.511,0.276-0.767C59.919,71.116,49.556,75.494,40.308,71.914z"/>
<linearGradient id="SVGID_4_" gradientUnits="userSpaceOnUse" x1="16.0645" y1="55.376" x2="76.9355" y2="55.376">
	<stop  offset="0.2634" style="stop-color:#FFFFFF"/>
	<stop  offset="1" style="stop-color:#000000"/>
</linearGradient>
<path opacity="0.1" fill="url(#SVGID_4_)" d="M46.504,85.82c-3.066,0-6.12-0.468-9.074-1.39c-3.973-1.242-7.576-3.231-10.713-5.915
	l-0.001,0.002l-0.501-0.439h0.001c-8.883-7.944-12.325-20.376-8.771-31.773c1.974-6.318,5.842-11.703,11.188-15.573
	c5.168-3.74,11.511-5.8,17.858-5.8c3.068,0,6.122,0.467,9.079,1.391c4.085,1.277,7.773,3.34,10.963,6.13
	c9.07,7.936,12.61,20.494,9.02,31.992c-1.974,6.318-5.843,11.702-11.188,15.574c-5.168,3.74-11.511,5.801-17.858,5.801
	C46.506,85.82,46.506,85.82,46.504,85.82z M31.709,72.323c2.353,2.059,5.075,3.578,8.09,4.515c2.178,0.682,4.429,1.026,6.69,1.026
	c9.898,0,18.527-6.344,21.474-15.788c2.653-8.495,0.038-17.774-6.663-23.64c-2.36-2.063-5.085-3.586-8.1-4.525
	c-2.196-0.686-4.459-1.034-6.729-1.034c-3.59,0-7.189,0.893-10.412,2.582c-5.32,2.789-9.236,7.482-11.024,13.216
	c-2.654,8.497-0.038,17.777,6.664,23.642L31.709,72.323z"/>
<linearGradient id="SVGID_5_" gradientUnits="userSpaceOnUse" x1="48.4131" y1="30.4189" x2="61.8838" y2="30.4189" gradientTransform="matrix(1 0 0 1 0 13.4082)">
	<stop  offset="0" style="stop-color:#9D533F"/>
	<stop  offset="0.1829" style="stop-color:#934936"/>
	<stop  offset="0.4913" style="stop-color:#7A2F1D"/>
	<stop  offset="0.5395" style="stop-color:#752A19"/>
	<stop  offset="1" style="stop-color:#642C24"/>
</linearGradient>
<path fill="url(#SVGID_5_)" d="M50.296,53.898c-0.904,2.801-2.822,8.159-1.337,11.143c1.806,2.959,8.626-0.071,11.378-4.536
	c2.758-4.05,1.564-8.85-1.497-10.107c2.709-9.397,0.5-20.042-7.249-28.394c-0.623-0.695-2.021-0.853-2.632,0.104
	c-0.614,0.946-0.273,2.352,0.286,2.873c7.106,6.642,10.031,15.97,8.142,25.01C54.075,49.756,51.336,51.298,50.296,53.898z"/>
<linearGradient id="SVGID_6_" gradientUnits="userSpaceOnUse" x1="32.6904" y1="68.2529" x2="45.8896" y2="68.2529">
	<stop  offset="0" style="stop-color:#9D533F"/>
	<stop  offset="0.1829" style="stop-color:#934936"/>
	<stop  offset="0.4913" style="stop-color:#7A2F1D"/>
	<stop  offset="0.5395" style="stop-color:#752A19"/>
	<stop  offset="1" style="stop-color:#642C24"/>
</linearGradient>
<path fill="url(#SVGID_6_)" d="M40.896,60.631c0.003,0.001,0.004,0.002,0.005,0.002c0.004-0.011,0.008-0.022,0.012-0.034
	c0-0.005,0.004-0.011,0.006-0.016c-0.001,0-0.001-0.001-0.003-0.001c0.799-3.784,4.977-8.801,4.973-9.043
	c-0.299-0.377-4.849,4.474-6.27,8.299c-0.263-0.15-0.527-0.302-0.79-0.452c1.162-4.207,6.009-9.478,6.003-9.702
	c-0.295-0.394-5.513,4.711-7.297,8.96c-0.262-0.151-0.526-0.303-0.787-0.453c1.518-4.632,7.033-10.158,7.026-10.361
	c-0.295-0.417-6.181,4.942-8.33,9.616c-0.264-0.152-0.529-0.304-0.794-0.457c1.885-5.055,8.071-10.837,8.061-11.023
	c-0.294-0.437-6.851,5.179-9.361,10.277c0,0,0,0-0.001,0c0,0.001-0.002,0.003-0.002,0.003c-0.013,0.021-0.024,0.043-0.037,0.063
	c0.003,0.001,0.005,0.002,0.007,0.003c-1.216,2.757-0.622,5.645,1.389,6.705c-2.48,8.905-0.376,19.035,7.022,27.077
	c0.599,0.678,1.962,0.687,2.571-0.437c0.61-1.11,0.329-2.585-0.193-3.055c-6.585-6.058-9.434-14.656-7.831-23.13
	C38.513,63.571,40.083,62.368,40.896,60.631z"/>
<path opacity="0.1" fill="#FFFFFF" d="M50.296,53.898c-0.904,2.801-2.822,8.159-1.337,11.143c1.806,2.959,8.626-0.071,11.378-4.536
	c2.758-4.05,1.564-8.85-1.497-10.107c2.709-9.397,0.5-20.042-7.249-28.394c-0.623-0.695-2.021-0.853-2.632,0.104
	c-0.614,0.946-0.273,2.352,0.286,2.873c7.106,6.642,10.031,15.97,8.142,25.01C54.075,49.756,51.336,51.298,50.296,53.898z"/>
<path opacity="0.1" fill="#FFFFFF" d="M40.896,60.631c0.003,0.001,0.004,0.002,0.005,0.002c0.004-0.011,0.008-0.022,0.012-0.034
	c0-0.005,0.004-0.011,0.006-0.016c-0.001,0-0.001-0.001-0.003-0.001c0.799-3.784,4.977-8.801,4.973-9.043
	c-0.299-0.377-4.849,4.474-6.27,8.299c-0.263-0.15-0.527-0.302-0.79-0.452c1.162-4.207,6.009-9.478,6.003-9.702
	c-0.295-0.394-5.513,4.711-7.297,8.96c-0.262-0.151-0.526-0.303-0.787-0.453c1.518-4.632,7.033-10.158,7.026-10.361
	c-0.295-0.417-6.181,4.942-8.33,9.616c-0.264-0.152-0.529-0.304-0.794-0.457c1.885-5.055,8.071-10.837,8.061-11.023
	c-0.294-0.437-6.851,5.179-9.361,10.277c0,0,0,0-0.001,0c0,0.001-0.002,0.003-0.002,0.003c-0.013,0.021-0.024,0.043-0.037,0.063
	c0.003,0.001,0.005,0.002,0.007,0.003c-1.216,2.757-0.622,5.645,1.389,6.705c-2.48,8.905-0.376,19.035,7.022,27.077
	c0.599,0.678,1.962,0.687,2.571-0.437c0.61-1.11,0.329-2.585-0.193-3.055c-6.585-6.058-9.434-14.656-7.831-23.13
	C38.513,63.571,40.083,62.368,40.896,60.631z"/>
</svg>
