<?xml version="1.0" encoding="utf-8"?>
<!-- Generator: Adobe Illustrator 16.0.0, SVG Export Plug-In . SVG Version: 6.00 Build 0)  -->
<!DOCTYPE svg PUBLIC "-//W3C//DTD SVG 1.1//EN" "http://www.w3.org/Graphics/SVG/1.1/DTD/svg11.dtd">
<svg version="1.1" id="Layer_1" xmlns="http://www.w3.org/2000/svg" xmlns:xlink="http://www.w3.org/1999/xlink" x="0px" y="0px"
	 width="93px" height="122px" viewBox="0 0 93 122" enable-background="new 0 0 93 122" xml:space="preserve">
<text transform="matrix(1 0 0 1 25.9907 112.333)" fill="#4F4E4E" font-family="'Leoscar-Sans-Serif'" font-size="14">Today </text>
<g>
	<path fill="#7186FF" d="M29.688,34.154c4.669-4.67,10.711-6.958,16.846-6.958c6.042,0,12.178,2.288,16.754,6.958
		c4.668,4.669,6.958,10.711,6.958,16.845c0,6.042-2.29,12.175-6.958,16.752c-4.576,4.67-10.712,7.052-16.754,7.052
		c-6.135,0-12.176-2.382-16.846-7.052C25.019,63.175,22.73,57.041,22.73,51C22.73,44.866,25.019,38.823,29.688,34.154L29.688,34.154
		z M46.534,28.57c-5.769,0-11.445,2.196-15.838,6.59C26.301,39.556,24.104,45.232,24.104,51c0,5.676,2.197,11.443,6.592,15.747
		c4.394,4.394,10.07,6.592,15.838,6.592c5.678,0,11.443-2.198,15.749-6.592c4.393-4.304,6.588-10.07,6.588-15.747
		c0-5.768-2.195-11.444-6.588-15.839C57.978,30.767,52.212,28.57,46.534,28.57L46.534,28.57z"/>
	<path fill="#6C82FF" d="M33.167,53.653c-0.457,0.093-0.823-0.183-0.823-0.548c-0.091-0.366,0.183-0.733,0.549-0.826l13.184-1.921
		l4.485-8.24c0.184-0.274,0.549-0.457,0.914-0.274c0.367,0.184,0.462,0.642,0.274,1.008l-4.667,8.423
		c-0.093,0.183-0.274,0.366-0.457,0.366L33.167,53.653z"/>
	<path fill="#8F9FFF" d="M31.885,37.358c-0.274-0.275-0.274-0.732,0-1.007c0.276-0.275,0.734-0.275,1.008,0l2.106,2.104
		c0.274,0.274,0.274,0.734,0,1.008c-0.275,0.274-0.732,0.274-1.007,0L31.885,37.358z"/>
	<path fill="#889AFF" d="M60.084,36.352c0.274-0.275,0.731-0.275,1.006,0c0.274,0.274,0.274,0.731,0,1.007l-2.104,2.105
		c-0.274,0.274-0.735,0.274-1.009,0c-0.274-0.274-0.274-0.733,0-1.008L60.084,36.352z"/>
	<path fill="#FF4AB4" d="M61.09,64.55c0.274,0.273,0.274,0.731,0,1.005c-0.274,0.275-0.731,0.275-1.006,0l-2.106-2.013
		c-0.274-0.274-0.274-0.732,0-1.009c0.273-0.365,0.734-0.365,1.009,0L61.09,64.55z"/>
	<path fill="#889AFF" d="M32.893,65.555c-0.274,0.275-0.732,0.275-1.008,0c-0.274-0.273-0.274-0.731,0-1.005l2.107-2.017
		c0.274-0.365,0.732-0.365,1.007,0c0.274,0.276,0.274,0.734,0,1.009L32.893,65.555z"/>
	<path fill="#97A6FF" d="M29.231,17.674c-0.275-0.274-0.275-0.732,0-1.006c0.274-0.276,0.731-0.276,1.006,0l7.049,7.049
		c0.276,0.275,0.276,0.732,0,1.006l-17.029,17.03c-0.275,0.275-0.732,0.275-1.007,0l-7.05-7.049c-0.365-0.274-0.365-0.731,0-1.008
		c0.275-0.274,0.732-0.274,1.007,0l6.501,6.592l16.114-16.113L29.231,17.674z"/>
	<path fill="#8597FF" d="M80.866,67.203c0.275,0.274,0.275,0.733,0,1.008c-0.273,0.274-0.732,0.274-1.006,0l-6.593-6.5
		L57.245,77.731l6.5,6.5c0.275,0.367,0.275,0.825,0,1.1c-0.273,0.276-0.73,0.276-1.006,0l-7.05-7.141
		c-0.273-0.276-0.273-0.733,0-1.008l17.029-17.029c0.275-0.273,0.732-0.273,1.006,0L80.866,67.203z"/>
	<path fill="#8194FF" d="M16.321,43.675L39.21,20.787c0.275-0.273,0.732-0.273,1.007,0l6.592,6.592c0.274,0.274,0.274,0.732,0,1.007
		c-0.183,0.185-0.366,0.275-0.549,0.185c-2.838,0.091-5.77,0.64-8.423,1.737c-2.564,1.1-5.035,2.748-7.141,4.853
		c-2.106,2.107-3.755,4.578-4.853,7.143c-1.099,2.747-1.647,5.584-1.739,8.512c0,0.368-0.274,0.643-0.733,0.643
		c-0.183,0-0.366,0-0.458-0.183l-6.592-6.592C16.047,44.408,16.047,43.949,16.321,43.675L16.321,43.675z M39.667,22.343
		l-21.79,21.883l4.852,4.945c0.275-2.564,0.823-5.037,1.831-7.418c1.19-2.746,2.839-5.31,5.127-7.598
		c2.196-2.29,4.852-3.938,7.598-5.127c2.381-1.009,4.852-1.557,7.326-1.74L39.667,22.343z M70.063,50.633l6.592,6.59
		c0.275,0.275,0.275,0.733,0,1.009l-22.89,22.887c-0.274,0.274-0.731,0.274-1.006,0l-6.591-6.592c-0.274-0.275-0.274-0.732,0-1.007
		c0.183-0.091,0.365-0.183,0.549-0.183c2.838,0,5.768-0.643,8.421-1.739c2.564-1.1,5.036-2.655,7.145-4.853
		c2.103-2.105,3.752-4.487,4.85-7.14c1.099-2.657,1.738-5.587,1.738-8.423c0-0.459,0.277-0.733,0.734-0.733
		C69.789,50.45,69.972,50.542,70.063,50.633L70.063,50.633z M75.189,57.775l-4.943-4.945c-0.274,2.473-0.822,4.945-1.833,7.323
		c-1.097,2.839-2.838,5.401-5.125,7.599c-2.198,2.29-4.854,4.029-7.599,5.127c-2.381,1.009-4.854,1.648-7.325,1.831l4.944,4.943
		L75.189,57.775z"/>
	<path fill-rule="evenodd" clip-rule="evenodd" fill="#788CFF" d="M46.534,31.772c0.365,0,0.731,0.277,0.731,0.734
		c0,0.366-0.366,0.731-0.731,0.731c-0.458,0-0.825-0.365-0.825-0.731C45.709,32.049,46.076,31.772,46.534,31.772L46.534,31.772z"/>
	<path fill-rule="evenodd" clip-rule="evenodd" fill="#8093FF" d="M65.67,51c0,0.367-0.278,0.732-0.735,0.732
		c-0.366,0-0.73-0.365-0.73-0.732c0-0.458,0.364-0.732,0.73-0.732C65.392,50.267,65.67,50.542,65.67,51L65.67,51z"/>
	<path fill-rule="evenodd" clip-rule="evenodd" fill="#90A0FF" d="M46.534,70.225c-0.458,0-0.825-0.366-0.825-0.824
		c0-0.366,0.367-0.732,0.825-0.732c0.365,0,0.731,0.366,0.731,0.732C47.266,69.858,46.899,70.225,46.534,70.225L46.534,70.225z"/>
	<path fill-rule="evenodd" clip-rule="evenodd" fill="#FF45B2" d="M27.308,51c0-0.458,0.274-0.732,0.732-0.732
		c0.366,0,0.733,0.274,0.733,0.732c0,0.367-0.367,0.732-0.733,0.732C27.583,51.732,27.308,51.367,27.308,51L27.308,51z"/>
</g>
</svg>
