<?xml version="1.0" encoding="utf-8"?>
<!-- Generator: Adobe Illustrator 16.0.0, SVG Export Plug-In . SVG Version: 6.00 Build 0)  -->
<!DOCTYPE svg PUBLIC "-//W3C//DTD SVG 1.1//EN" "http://www.w3.org/Graphics/SVG/1.1/DTD/svg11.dtd">
<svg version="1.1" id="Layer_1" xmlns="http://www.w3.org/2000/svg" xmlns:xlink="http://www.w3.org/1999/xlink" x="0px" y="0px"
	 width="70px" height="70px" viewBox="0 0 70 70" enable-background="new 0 0 70 70" xml:space="preserve">
<g>
	<path fill="#3DB5C1" d="M56.036,46.477c-4.103-3.547-7.902-8.558-7.902-21.061c0-7.242-5.892-13.134-13.133-13.134
		c-7.244,0-13.138,5.892-13.138,13.134c0,12.515-3.796,17.52-7.904,21.068c-1.138,0.989-1.791,2.416-1.791,3.92
		c0,0.822,0.668,1.49,1.494,1.49h14.177c0.692,3.322,3.641,5.823,7.16,5.823c3.521,0,6.468-2.501,7.159-5.823h14.179
		c0.826,0,1.495-0.67,1.495-1.49C57.832,48.891,57.178,47.46,56.036,46.477L56.036,46.477z M34.999,54.729
		c-1.859,0-3.45-1.181-4.061-2.835h8.121C38.449,53.549,36.86,54.729,34.999,54.729L34.999,54.729z M15.742,48.906
		c0.055-0.06,0.112-0.113,0.176-0.167c6.263-5.409,8.935-12.383,8.935-23.323c0-5.595,4.552-10.146,10.148-10.146
		c5.592,0,10.145,4.551,10.145,10.146c0,10.93,2.672,17.906,8.939,23.323c0.061,0.056,0.119,0.111,0.172,0.167H15.742z
		 M15.742,48.906"/>
</g>
<path fill="#3DB5C1" d="M34.944,0.438c-19.083,0-34.607,15.566-34.607,34.703c0,19.123,15.524,34.701,34.607,34.7
	c19.082,0,34.606-15.577,34.606-34.7C69.551,16.004,54.026,0.438,34.944,0.438L34.944,0.438z M34.944,67.247
	c-17.656,0-32.03-14.401-32.03-32.106c0-17.706,14.374-32.119,32.03-32.119c17.66,0,32.02,14.413,32.02,32.119
	C66.964,52.846,52.604,67.247,34.944,67.247L34.944,67.247z M34.944,67.247"/>
</svg>
