<?xml version="1.0" encoding="utf-8"?>
<!-- Generator: Adobe Illustrator 16.0.0, SVG Export Plug-In . SVG Version: 6.00 Build 0)  -->
<!DOCTYPE svg PUBLIC "-//W3C//DTD SVG 1.1//EN" "http://www.w3.org/Graphics/SVG/1.1/DTD/svg11.dtd">
<svg version="1.1" id="Layer_1" xmlns="http://www.w3.org/2000/svg" xmlns:xlink="http://www.w3.org/1999/xlink" x="0px" y="0px"
	 width="70px" height="70px" viewBox="0 0 70 70" enable-background="new 0 0 70 70" xml:space="preserve">
<g>
	<path fill="#3DB5C1" d="M15.742,48.906"/>
</g>
<path fill="#3DB5C1" d="M34.944,0.438c-19.083,0-34.607,15.566-34.607,34.703c0,19.123,15.524,34.701,34.607,34.7
	c19.082,0,34.606-15.577,34.606-34.7C69.551,16.004,54.026,0.438,34.944,0.438L34.944,0.438z M34.944,67.247
	c-17.656,0-32.03-14.401-32.03-32.106c0-17.706,14.374-32.119,32.03-32.119c17.66,0,32.02,14.413,32.02,32.119
	C66.964,52.846,52.604,67.247,34.944,67.247L34.944,67.247z M34.944,67.247"/>
<path fill="#FFFFFF" d="M60.043,45.957v-2.638c0-0.552-0.245-1.084-0.681-1.435c-2.38-1.956-4.943-3.253-5.475-3.509
	c-0.064-0.031-0.096-0.085-0.096-0.159v-3.711c0.468-0.308,0.775-0.84,0.775-1.445v-3.849c0-1.914-1.552-3.466-3.466-3.466h-0.829
	c-1.913,0-3.465,1.552-3.465,3.466v3.849c0,0.605,0.308,1.127,0.774,1.445v3.711c0,0.063-0.03,0.128-0.095,0.159
	c-0.521,0.256-3.095,1.553-5.475,3.509c-0.426,0.351-0.682,0.883-0.682,1.435v2.638"/>
<path fill="#3DB5C1" d="M60.043,46.924"/>
<g>
	<defs>
		<rect id="SVGID_1_" x="14.724" y="11.29" width="40.553" height="47.42"/>
	</defs>
	<clipPath id="SVGID_2_">
		<use xlink:href="#SVGID_1_"  overflow="visible"/>
	</clipPath>
	<path clip-path="url(#SVGID_2_)" fill="#5AC6CB" d="M53.059,42.957c-1.275,3.453-3.203,6.458-5.73,8.926
		c-2.877,2.811-6.646,5.042-11.198,6.635c-0.149,0.053-0.306,0.095-0.462,0.126c-0.208,0.042-0.418,0.063-0.626,0.066h-0.041
		c-0.223,0-0.446-0.022-0.668-0.066c-0.156-0.031-0.311-0.073-0.459-0.125c-4.559-1.589-8.332-3.821-11.211-6.631
		c-2.529-2.468-4.457-5.47-5.729-8.925c-2.315-6.28-2.183-13.2-2.077-18.76l0.001-0.085c0.021-0.459,0.035-0.941,0.043-1.474
		c0.039-2.614,2.117-4.777,4.732-4.924c5.452-0.305,9.669-2.082,13.273-5.596l0.032-0.027c0.598-0.549,1.352-0.818,2.103-0.808
		c0.723,0.01,1.443,0.278,2.021,0.808l0.031,0.027c3.604,3.514,7.822,5.291,13.274,5.596c2.614,0.146,4.693,2.31,4.732,4.924
		c0.008,0.536,0.021,1.018,0.043,1.474v0.037C55.25,29.725,55.381,36.657,53.059,42.957L53.059,42.957z M53.059,42.957"/>
	<path clip-path="url(#SVGID_2_)" fill="#3DB5C1" d="M53.059,42.957c-1.275,3.453-3.203,6.458-5.73,8.926
		c-2.877,2.811-6.646,5.042-11.198,6.635c-0.149,0.053-0.306,0.095-0.462,0.126c-0.208,0.042-0.418,0.063-0.626,0.066V11.29
		c0.723,0.01,1.443,0.278,2.021,0.808l0.031,0.027c3.604,3.514,7.822,5.291,13.274,5.596c2.614,0.146,4.693,2.31,4.732,4.924
		c0.008,0.536,0.021,1.018,0.043,1.474v0.037C55.25,29.725,55.381,36.657,53.059,42.957L53.059,42.957z M53.059,42.957"/>
</g>
<path fill="#FFFFFF" d="M46.818,35c0,6.502-5.28,11.796-11.776,11.818H35c-6.516,0-11.819-5.301-11.819-11.818
	c0-6.517,5.303-11.818,11.819-11.818h0.042C41.538,23.205,46.818,28.498,46.818,35L46.818,35z M46.818,35"/>
<path fill="#E1EAEF" d="M46.818,35c0,6.502-5.28,11.796-11.776,11.818V23.182C41.538,23.205,46.818,28.498,46.818,35L46.818,35z
	 M46.818,35"/>
<path fill="#B3D1D7" d="M40.364,33.298l-5.322,5.324l-1.151,1.149c-0.271,0.271-0.628,0.407-0.983,0.407
	c-0.356,0-0.712-0.136-0.985-0.407l-2.473-2.474c-0.543-0.543-0.543-1.424,0-1.968c0.543-0.543,1.424-0.543,1.968,0l1.489,1.49
	l5.49-5.489c0.542-0.544,1.424-0.544,1.967,0C40.907,31.874,40.907,32.756,40.364,33.298L40.364,33.298z M40.364,33.298"/>
<path fill="#6FA3A8" d="M40.364,33.298l-5.322,5.324v-3.937l3.355-3.354c0.542-0.544,1.424-0.544,1.967,0
	C40.907,31.874,40.907,32.756,40.364,33.298L40.364,33.298z M40.364,33.298"/>
</svg>
