<?xml version="1.0" encoding="utf-8"?>
<!-- Generator: Adobe Illustrator 16.0.0, SVG Export Plug-In . SVG Version: 6.00 Build 0)  -->
<!DOCTYPE svg PUBLIC "-//W3C//DTD SVG 1.1//EN" "http://www.w3.org/Graphics/SVG/1.1/DTD/svg11.dtd">
<svg version="1.1" id="Layer_1" xmlns="http://www.w3.org/2000/svg" xmlns:xlink="http://www.w3.org/1999/xlink" x="0px" y="0px"
	 width="70px" height="70px" viewBox="0 0 70 70" enable-background="new 0 0 70 70" xml:space="preserve">
<path fill="#3DB5C1" d="M34.944,0.438c-19.083,0-34.607,15.566-34.607,34.703c0,19.123,15.524,34.701,34.607,34.7
	c19.082,0,34.606-15.577,34.606-34.7C69.551,16.004,54.026,0.438,34.944,0.438L34.944,0.438z M34.944,67.247
	c-17.656,0-32.03-14.401-32.03-32.106c0-17.706,14.374-32.119,32.03-32.119c17.66,0,32.02,14.413,32.02,32.119
	C66.964,52.846,52.604,67.247,34.944,67.247L34.944,67.247z M34.944,67.247"/>
<path fill="#3DB5C1" d="M55.092,32.049v-1.965c0-11.08-9.014-20.094-20.093-20.094h-0.101c-11.08,0-20.094,9.014-20.094,20.094
	v1.988c-2.813,0.668-4.914,3.2-4.914,6.216v6.684c0,3.522,2.866,6.388,6.389,6.388h6.781v-19.46h-5.308v-1.815
	c0-9.453,7.691-17.145,17.146-17.145h0.101c9.454,0,17.146,7.691,17.146,17.145v1.815H46.94v19.46h4.827
	c-0.717,1.677-2.383,2.854-4.317,2.854h-5.903v-2.85h-8.878c-2.385,0-4.323,1.939-4.323,4.323s1.938,4.323,4.323,4.323h8.878v-2.85
	h5.903c3.618,0,6.655-2.526,7.442-5.91c2.965-0.551,5.217-3.154,5.217-6.278v-6.684C60.109,35.235,57.958,32.678,55.092,32.049
	L55.092,32.049z M12.841,44.972v-6.684c0-1.37,0.804-2.555,1.964-3.107v12.9C13.645,47.526,12.841,46.342,12.841,44.972
	L12.841,44.972z M20.112,34.848v13.563h-2.359V34.848H20.112z M38.601,57.063h-5.932c-0.76,0-1.375-0.618-1.375-1.376
	c0-0.76,0.615-1.376,1.375-1.376h5.932V57.063z M49.888,34.848h2.257v13.563h-2.257V34.848z M57.162,44.972
	c0,1.409-0.854,2.624-2.07,3.154V35.134c1.217,0.53,2.07,1.743,2.07,3.154V44.972z M57.162,44.972"/>
<text transform="matrix(1.5 0 0 0.99 29.0669 39)" fill="#3DB5C1" font-family="'Leoscar-Sans-Serif'" font-size="19">?</text>
</svg>
