<?xml version="1.0" encoding="utf-8"?>
<!-- Generator: Adobe Illustrator 16.0.0, SVG Export Plug-In . SVG Version: 6.00 Build 0)  -->
<!DOCTYPE svg PUBLIC "-//W3C//DTD SVG 1.1//EN" "http://www.w3.org/Graphics/SVG/1.1/DTD/svg11.dtd">
<svg version="1.1" id="Layer_1" xmlns="http://www.w3.org/2000/svg" xmlns:xlink="http://www.w3.org/1999/xlink" x="0px" y="0px"
	 width="70px" height="70px" viewBox="0 0 70 70" enable-background="new 0 0 70 70" xml:space="preserve">
<path fill="#3DB5C1" d="M34.944,0.438c-19.083,0-34.607,15.566-34.607,34.703c0,19.123,15.524,34.701,34.607,34.7
	c19.082,0,34.606-15.577,34.606-34.7C69.551,16.004,54.026,0.438,34.944,0.438L34.944,0.438z M34.944,67.247
	c-17.656,0-32.03-14.401-32.03-32.106c0-17.706,14.374-32.119,32.03-32.119c17.66,0,32.02,14.413,32.02,32.119
	C66.964,52.846,52.604,67.247,34.944,67.247L34.944,67.247z M34.944,67.247"/>
<g>
	<path fill="#3DB5C1" d="M13.527,30.974c0,2.499,1.714,4.58,4.026,5.181v17.635h-2.684c-0.739,0-1.342,0.602-1.342,1.342
		c0,0.742,0.603,1.342,1.342,1.342h40.262c0.744,0,1.342-0.6,1.342-1.342c0-0.74-0.598-1.342-1.342-1.342h-2.684V36.154
		c2.311-0.601,4.025-2.682,4.025-5.181v-1.342H13.527V30.974z M40.369,36.342c2.967,0,5.367-2.403,5.367-5.368
		c0,2.499,1.715,4.58,4.027,5.181v17.635H29.631V36.342c2.967,0,5.369-2.403,5.369-5.368C35,33.938,37.406,36.342,40.369,36.342
		L40.369,36.342z M28.289,36.154v17.635h-8.052V36.154c2.312-0.601,4.025-2.682,4.025-5.181
		C24.263,33.472,25.978,35.553,28.289,36.154L28.289,36.154z M51.104,17.553H18.895l-5.368,10.736h42.946L51.104,17.553z
		 M24.866,20.537l-2.684,5.368c-0.121,0.236-0.357,0.373-0.603,0.373c-0.1,0-0.202-0.021-0.299-0.071
		c-0.331-0.165-0.467-0.569-0.299-0.899l2.684-5.368c0.168-0.332,0.569-0.464,0.9-0.302C24.898,19.803,25.029,20.206,24.866,20.537
		L24.866,20.537z M30.235,20.537l-2.685,5.368c-0.121,0.236-0.357,0.373-0.603,0.373c-0.1,0-0.202-0.021-0.299-0.071
		c-0.331-0.165-0.467-0.569-0.299-0.899l2.684-5.368c0.167-0.332,0.571-0.464,0.899-0.302
		C30.266,19.803,30.397,20.206,30.235,20.537L30.235,20.537z M35.67,25.606c0,0.372-0.298,0.671-0.67,0.671
		c-0.37,0-0.671-0.299-0.671-0.671v-5.369c0-0.372,0.302-0.671,0.671-0.671c0.372,0,0.67,0.299,0.67,0.671V25.606z M43.377,26.193
		c-0.105,0.058-0.215,0.084-0.324,0.084c-0.238,0-0.469-0.125-0.588-0.349l-2.936-5.368c-0.18-0.325-0.059-0.734,0.268-0.91
		c0.32-0.178,0.734-0.063,0.912,0.265l2.936,5.369C43.818,25.608,43.703,26.018,43.377,26.193L43.377,26.193z M48.719,26.206
		c-0.094,0.049-0.193,0.071-0.299,0.071c-0.246,0-0.482-0.137-0.598-0.373l-2.684-5.369c-0.168-0.33-0.031-0.733,0.299-0.898
		c0.326-0.165,0.734-0.031,0.902,0.301l2.684,5.369C49.188,25.637,49.055,26.041,48.719,26.206L48.719,26.206z M24.935,45.941
		v-3.094c-0.394-0.236-0.672-0.645-0.672-1.137c0-0.742,0.604-1.342,1.343-1.342c0.744,0,1.342,0.6,1.342,1.342
		c0,0.492-0.276,0.9-0.671,1.137v3.094c0.395,0.236,0.671,0.645,0.671,1.137c0,0.742-0.598,1.342-1.342,1.342
		c-0.739,0-1.343-0.6-1.343-1.342C24.263,46.586,24.541,46.178,24.935,45.941L24.935,45.941z M18.895,14.869
		c0-0.742,0.603-1.342,1.342-1.342h29.526c0.744,0,1.34,0.601,1.34,1.342s-0.596,1.342-1.34,1.342H20.237
		C19.498,16.211,18.895,15.611,18.895,14.869L18.895,14.869z M37.051,43.527l-0.95-0.949l3.796-3.795l0.949,0.947L37.051,43.527z
		 M37.051,47.322l-0.95-0.947l7.591-7.592l0.949,0.947L37.051,47.322z M43.691,42.578l0.949,0.949l-3.795,3.795l-0.949-0.947
		L43.691,42.578z M43.691,42.578"/>
</g>
</svg>
