<?xml version="1.0" encoding="utf-8"?>
<!-- Generator: Adobe Illustrator 16.0.0, SVG Export Plug-In . SVG Version: 6.00 Build 0)  -->
<!DOCTYPE svg PUBLIC "-//W3C//DTD SVG 1.1//EN" "http://www.w3.org/Graphics/SVG/1.1/DTD/svg11.dtd">
<svg version="1.1" id="Layer_1" xmlns="http://www.w3.org/2000/svg" xmlns:xlink="http://www.w3.org/1999/xlink" x="0px" y="0px"
	 width="70px" height="70px" viewBox="0 0 70 70" enable-background="new 0 0 70 70" xml:space="preserve">
<path fill="#3DB5C1" d="M34.944,0.438c-19.083,0-34.607,15.566-34.607,34.703c0,19.123,15.524,34.701,34.607,34.7
	c19.082,0,34.606-15.577,34.606-34.7C69.551,16.004,54.026,0.438,34.944,0.438L34.944,0.438z M34.944,67.247
	c-17.656,0-32.03-14.401-32.03-32.106c0-17.706,14.374-32.119,32.03-32.119c17.66,0,32.02,14.413,32.02,32.119
	C66.964,52.846,52.604,67.247,34.944,67.247L34.944,67.247z M34.944,67.247"/>
<g>
	<defs>
		<rect id="SVGID_5_" x="17.401" y="10.953" width="35.197" height="48.375"/>
	</defs>
	<clipPath id="SVGID_6_">
		<use xlink:href="#SVGID_5_"  overflow="visible"/>
	</clipPath>
	<path clip-path="url(#SVGID_6_)" fill="#3DB5C1" d="M44.365,10.953H20.329c-1.613,0-2.927,1.315-2.927,2.927v41.904
		c0,1.613,1.314,2.928,2.927,2.928h29.444c1.615,0,2.929-1.314,2.929-2.928V20.008L44.365,10.953z M45.059,15.335l3.652,3.971
		h-3.652V15.335z M50.241,55.78c0,0.262-0.21,0.473-0.469,0.473H20.329c-0.257,0-0.467-0.211-0.467-0.473v-41.9
		c0-0.257,0.21-0.468,0.467-0.468h22.267v7.124c0,0.679,0.555,1.227,1.232,1.227h6.413V55.78z M24.2,24.033h20.886
		c0.507,0,0.92,0.414,0.92,0.921c0,0.51-0.413,0.924-0.92,0.924H24.2c-0.509,0-0.924-0.414-0.924-0.924
		C23.276,24.447,23.691,24.033,24.2,24.033L24.2,24.033z M46.006,31.148c0,0.506-0.413,0.921-0.92,0.921H24.2
		c-0.509,0-0.924-0.415-0.924-0.921c0-0.51,0.415-0.922,0.924-0.922h20.886C45.593,30.227,46.006,30.638,46.006,31.148
		L46.006,31.148z M46.006,37.138c0,0.508-0.413,0.92-0.92,0.92H24.2c-0.509,0-0.924-0.412-0.924-0.92
		c0-0.51,0.415-0.924,0.924-0.924h20.886C45.593,36.214,46.006,36.628,46.006,37.138L46.006,37.138z M46.006,43.226
		c0,0.51-0.413,0.924-0.92,0.924H24.2c-0.509,0-0.924-0.414-0.924-0.924c0-0.506,0.415-0.92,0.924-0.92h20.886
		C45.593,42.306,46.006,42.72,46.006,43.226L46.006,43.226z M46.006,43.226"/>
</g>
</svg>
