<?xml version="1.0" encoding="utf-8"?>
<!-- Generator: Adobe Illustrator 16.0.0, SVG Export Plug-In . SVG Version: 6.00 Build 0)  -->
<!DOCTYPE svg PUBLIC "-//W3C//DTD SVG 1.1//EN" "http://www.w3.org/Graphics/SVG/1.1/DTD/svg11.dtd">
<svg version="1.1" id="Layer_1" xmlns="http://www.w3.org/2000/svg" xmlns:xlink="http://www.w3.org/1999/xlink" x="0px" y="0px"
	 width="70px" height="70px" viewBox="0 0 70 70" enable-background="new 0 0 70 70" xml:space="preserve">
<path fill="#3DB5C1" d="M34.944,0.438c-19.083,0-34.607,15.566-34.607,34.703c0,19.123,15.524,34.701,34.607,34.7
	c19.082,0,34.606-15.577,34.606-34.7C69.551,16.004,54.026,0.438,34.944,0.438L34.944,0.438z M34.944,67.247
	c-17.656,0-32.03-14.401-32.03-32.106c0-17.706,14.374-32.119,32.03-32.119c17.66,0,32.02,14.413,32.02,32.119
	C66.964,52.846,52.604,67.247,34.944,67.247L34.944,67.247z M34.944,67.247"/>
<g display="none">
	<g display="inline">
		<defs>
			<rect id="SVGID_1_" x="2.662" y="5.735" width="64.676" height="57.882"/>
		</defs>
		<clipPath id="SVGID_2_">
			<use xlink:href="#SVGID_1_"  overflow="visible"/>
		</clipPath>
		<path clip-path="url(#SVGID_2_)" d="M67.176,56.972c-0.239-0.556-0.787-0.915-1.393-0.915H52.03
			c1.492-1.596,2.764-3.398,3.755-5.338c1.688-3.304,2.543-6.872,2.543-10.606c0-0.839-0.68-1.519-1.519-1.519H13.153
			c-0.839,0-1.519,0.68-1.519,1.519c0,0.631,0.027,1.257,0.076,1.878h-3.79c-1.019,0-1.974,0.396-2.688,1.114
			c-0.719,0.718-1.114,1.673-1.114,2.688c0,3.991,3.246,7.237,7.236,7.237h4.181c0.714,1.071,1.519,2.085,2.399,3.026H4.181
			c-0.605,0-1.153,0.359-1.394,0.915c-0.241,0.555-0.129,1.199,0.285,1.642c2.886,3.08,6.961,4.845,11.183,4.845H55.71
			c4.221,0,8.296-1.765,11.182-4.845C67.306,58.171,67.417,57.526,67.176,56.972L67.176,56.972z M7.154,45.793
			c0-0.205,0.079-0.396,0.227-0.544c0.144-0.144,0.335-0.223,0.54-0.223h4.229c0.365,1.708,0.925,3.367,1.675,4.967h-2.471
			C9.038,49.993,7.154,48.109,7.154,45.793L7.154,45.793z M14.728,41.63h40.508c-0.414,5.691-3.154,10.862-7.675,14.427H22.402
			C17.882,52.492,15.142,47.321,14.728,41.63L14.728,41.63z M55.71,60.422H14.255c-1.941,0-3.845-0.466-5.551-1.329H61.26
			C59.553,59.956,57.651,60.422,55.71,60.422L55.71,60.422z M55.71,60.422"/>
		<path clip-path="url(#SVGID_2_)" d="M24.827,22.252l7.753,3.674c2.328,1.104,3.831,3.39,3.922,5.966
			c0.029,0.819,0.703,1.465,1.517,1.465c0.018,0,0.037-0.001,0.055-0.002c0.838-0.029,1.493-0.732,1.464-1.57
			c-0.131-3.715-2.3-7.011-5.658-8.602l-7.752-3.674c-2.651-1.258-3.786-4.438-2.53-7.089c0.61-1.285,1.683-2.256,3.021-2.733
			c1.339-0.478,2.783-0.406,4.068,0.203c0.759,0.359,1.664,0.036,2.022-0.722c0.358-0.757,0.036-1.663-0.722-2.022
			c-2.018-0.956-4.287-1.07-6.39-0.319s-3.788,2.275-4.744,4.292C18.88,15.284,20.663,20.278,24.827,22.252L24.827,22.252z
			 M24.827,22.252"/>
		<path clip-path="url(#SVGID_2_)" d="M37.862,10.26c2.111-2.039,5.487-1.978,7.524,0.133c2.036,2.109,1.979,5.48-0.125,7.519
			l-5.468,5.125c-0.611,0.573-0.643,1.534-0.069,2.145c0.3,0.319,0.703,0.48,1.108,0.48c0.372,0,0.744-0.137,1.039-0.411
			l5.475-5.131c0.006-0.005,0.011-0.01,0.016-0.016c3.317-3.201,3.411-8.503,0.21-11.819c-3.2-3.317-8.503-3.411-11.818-0.21
			c-0.604,0.582-0.621,1.543-0.039,2.146C36.297,10.826,37.259,10.841,37.862,10.26L37.862,10.26z M37.862,10.26"/>
	</g>
	<path display="inline" d="M33.221,31.916c0.701-0.457,0.9-1.398,0.443-2.101c-0.458-0.703-1.398-0.902-2.101-0.444
		c-1.772,1.154-2.644,3.313-2.166,5.375l0.161,0.697c0.162,0.702,0.787,1.177,1.478,1.177c0.114,0,0.229-0.014,0.344-0.039
		c0.816-0.189,1.326-1.004,1.137-1.821l-0.161-0.698C32.165,33.238,32.513,32.377,33.221,31.916L33.221,31.916z M33.221,31.916"/>
</g>
<g display="none">
	<g display="inline">
		<defs>
			<rect id="SVGID_3_" x="-0.813" y="5.917" width="55.872" height="58.3"/>
		</defs>
		<clipPath id="SVGID_4_">
			<use xlink:href="#SVGID_3_"  overflow="visible"/>
		</clipPath>
		<path clip-path="url(#SVGID_4_)" d="M40,57.415c0,1.076-0.873,1.945-1.945,1.945s-1.945-0.869-1.945-1.945
			c0-1.072,0.873-1.941,1.945-1.941S40,56.343,40,57.415L40,57.415z M40,57.415"/>
		<path clip-path="url(#SVGID_4_)" d="M50.295,5.917H25.818c-2.363,0-4.285,1.921-4.285,4.279v9.266
			c-5.105,1.961-8.743,6.904-8.743,12.693c0,3.163,1.096,6.072,2.918,8.387L-0.505,55.735c-0.393,0.369-0.413,0.982-0.047,1.375
			c0.194,0.205,0.451,0.305,0.712,0.305c0.237,0,0.474-0.086,0.665-0.262l16.193-15.174c1.29,1.234,2.823,2.211,4.516,2.861v15.098
			c0,2.357,1.922,4.279,4.285,4.279H50.29c2.363,0,4.28-1.922,4.28-4.279V10.196C54.574,7.839,52.653,5.917,50.295,5.917
			L50.295,5.917z M40.968,8.83h0.973c0.536,0,0.973,0.437,0.973,0.973c0,0.537-0.437,0.973-0.973,0.973h-0.973
			C40.432,10.776,40,10.34,40,9.803C40,9.267,40.432,8.83,40.968,8.83L40.968,8.83z M34.168,8.83h3.886
			c0.536,0,0.973,0.437,0.973,0.973c0,0.537-0.437,0.973-0.973,0.973h-3.886c-0.536,0-0.973-0.436-0.973-0.973
			C33.196,9.267,33.632,8.83,34.168,8.83L34.168,8.83z M14.734,32.155c0-6.434,5.228-11.663,11.657-11.663
			c6.435,0,11.664,5.229,11.664,11.663c0,6.428-5.229,11.656-11.664,11.656C19.962,43.812,14.734,38.583,14.734,32.155
			L14.734,32.155z M38.055,61.306c-2.145,0-3.886-1.746-3.886-3.891c0-2.141,1.742-3.887,3.886-3.887s3.886,1.746,3.886,3.887
			C41.94,59.56,40.199,61.306,38.055,61.306L38.055,61.306z M52.63,50.616H23.479v-5.182c0.939,0.203,1.917,0.322,2.913,0.322
			C33.898,45.757,40,39.655,40,32.155c0-7.502-6.102-13.608-13.609-13.608c-0.996,0-1.974,0.119-2.913,0.323v-5.182H52.63V50.616z
			 M52.63,50.616"/>
	</g>
</g>
<g display="none">
	<path display="inline" d="M56.383,22.457c-0.537-9.179-8.104-16.51-17.222-16.51c-5.535,0-10.891,2.713-14.216,7.142
		c-0.074-0.039-0.154-0.063-0.233-0.104c-0.199-0.094-0.404-0.188-0.607-0.268c-0.12-0.051-0.244-0.095-0.368-0.135
		c-0.199-0.07-0.403-0.134-0.612-0.188c-0.12-0.036-0.239-0.064-0.363-0.096c-0.225-0.05-0.454-0.089-0.683-0.123
		c-0.109-0.016-0.214-0.036-0.324-0.05c-0.337-0.036-0.676-0.061-1.024-0.061c-5.057,0-9.173,4.116-9.173,9.173
		c0,0.13,0.004,0.259,0.014,0.389c-4.24,2.31-7.152,7.152-7.152,12.001c0,7.222,5.873,13.095,13.095,13.095h5.251
		c0.563,0,1.021-0.458,1.021-1.021s-0.458-1.02-1.021-1.02h-5.251c-6.097,0-11.053-4.958-11.053-11.055
		c0-4.237,2.757-8.632,6.555-10.452l0.577-0.274v-0.642c0-0.125,0.01-0.254,0.015-0.384l0.01-0.175l-0.01-0.209
		c-0.01-0.084-0.015-0.17-0.015-0.254c0-3.932,3.201-7.138,7.138-7.138c0.313,0,0.627,0.03,0.936,0.07
		c0.081,0.01,0.159,0.025,0.24,0.034c0.269,0.051,0.538,0.105,0.801,0.185c0.034,0.011,0.074,0.016,0.109,0.025
		c0.288,0.09,0.573,0.204,0.85,0.327c0.07,0.031,0.14,0.065,0.21,0.1c0.249,0.125,0.487,0.255,0.721,0.409
		c1.961,1.274,3.265,3.479,3.265,5.987c0,0.563,0.458,1.021,1.021,1.021c0.563,0,1.021-0.459,1.021-1.021
		c0-2.807-1.27-5.32-3.261-7.003c2.921-3.822,7.736-6.246,12.519-6.246c7.895,0,14.454,6.252,15.136,14.155
		c-1.04-0.075-2.603-0.114-4.16,0.125c-0.558,0.084-0.941,0.606-0.856,1.165c0.079,0.502,0.513,0.864,1.011,0.864
		c0.049,0,0.099-0.005,0.154-0.014c2.265-0.344,4.629-0.021,4.772,0c4.749,0.901,8.322,5.27,8.322,10.179
		c0,5.634-4.584,10.219-10.219,10.219h-4.051c-0.563,0-1.021,0.457-1.021,1.02s0.458,1.021,1.021,1.021h4.051
		c6.76,0,12.26-5.5,12.26-12.259C65.581,28.868,61.679,23.846,56.383,22.457L56.383,22.457z M56.383,22.457"/>
	<path display="inline" d="M44.631,52.874c1.623-1.946,2.604-4.445,2.604-7.173c0-6.182-5.032-11.214-11.214-11.214
		c-6.182,0-11.214,5.032-11.214,11.214c0,6.183,5.032,11.215,11.214,11.215c2.723,0,5.222-0.98,7.167-2.604l9.442,9.442
		c0.199,0.199,0.458,0.298,0.717,0.298c0.264,0,0.522-0.099,0.722-0.298c0.398-0.398,0.398-1.046,0-1.443L44.631,52.874z
		 M36.021,54.875c-5.057,0-9.173-4.111-9.173-9.174c0-5.057,4.116-9.173,9.173-9.173c5.058,0,9.173,4.116,9.173,9.173
		C45.193,50.764,41.078,54.875,36.021,54.875L36.021,54.875z M36.021,54.875"/>
</g>
<g>
	<defs>
		<rect id="SVGID_5_" x="17.401" y="10.953" width="35.197" height="48.375"/>
	</defs>
	<clipPath id="SVGID_6_">
		<use xlink:href="#SVGID_5_"  overflow="visible"/>
	</clipPath>
	<path clip-path="url(#SVGID_6_)" fill="#3DB5C1" d="M44.365,10.953H20.329c-1.613,0-2.927,1.315-2.927,2.927v41.904
		c0,1.613,1.314,2.928,2.927,2.928h29.444c1.615,0,2.929-1.314,2.929-2.928V20.008L44.365,10.953z M45.059,15.335l3.652,3.971
		h-3.652V15.335z M50.241,55.78c0,0.262-0.21,0.473-0.469,0.473H20.329c-0.257,0-0.467-0.211-0.467-0.473v-41.9
		c0-0.257,0.21-0.468,0.467-0.468h22.267v7.124c0,0.679,0.555,1.227,1.232,1.227h6.413V55.78z M24.2,24.033h20.886
		c0.507,0,0.92,0.414,0.92,0.921c0,0.51-0.413,0.924-0.92,0.924H24.2c-0.509,0-0.924-0.414-0.924-0.924
		C23.276,24.447,23.691,24.033,24.2,24.033L24.2,24.033z M46.006,31.148c0,0.506-0.413,0.921-0.92,0.921H24.2
		c-0.509,0-0.924-0.415-0.924-0.921c0-0.51,0.415-0.922,0.924-0.922h20.886C45.593,30.227,46.006,30.638,46.006,31.148
		L46.006,31.148z M46.006,37.138c0,0.508-0.413,0.92-0.92,0.92H24.2c-0.509,0-0.924-0.412-0.924-0.92
		c0-0.51,0.415-0.924,0.924-0.924h20.886C45.593,36.214,46.006,36.628,46.006,37.138L46.006,37.138z M46.006,43.226
		c0,0.51-0.413,0.924-0.92,0.924H24.2c-0.509,0-0.924-0.414-0.924-0.924c0-0.506,0.415-0.92,0.924-0.92h20.886
		C45.593,42.306,46.006,42.72,46.006,43.226L46.006,43.226z M46.006,43.226"/>
</g>
</svg>
