<?xml version="1.0" encoding="utf-8"?>
<!-- Generator: Adobe Illustrator 16.0.0, SVG Export Plug-In . SVG Version: 6.00 Build 0)  -->
<!DOCTYPE svg PUBLIC "-//W3C//DTD SVG 1.1//EN" "http://www.w3.org/Graphics/SVG/1.1/DTD/svg11.dtd">
<svg version="1.1" id="Layer_1" xmlns="http://www.w3.org/2000/svg" xmlns:xlink="http://www.w3.org/1999/xlink" x="0px" y="0px"
	 width="70px" height="70px" viewBox="0 0 70 70" enable-background="new 0 0 70 70" xml:space="preserve">
<path fill="#3DB5C1" d="M69.551,35.229c0-19.164-15.615-34.779-34.78-34.779C15.607,0.449,0,16.064,0,35.229
	c0,10.556,4.789,20.051,12.24,26.434c0.09,0.09,0.18,0.181,0.353,0.263C18.623,66.985,26.343,70,34.861,70
	c8.337,0,16.059-3.015,22.089-7.895c0.353-0.09,0.624-0.354,0.797-0.624C64.942,55.009,69.551,45.693,69.551,35.229L69.551,35.229z
	 M3.195,35.229c0-17.389,14.195-31.584,31.584-31.584c17.39,0,31.584,14.195,31.584,31.584c0,8.519-3.368,16.231-8.871,21.916
	c-0.888-4.173-3.549-11.27-11.713-15.878c1.864-2.309,2.923-5.323,2.923-8.519c0-7.632-6.21-13.841-13.841-13.841
	s-13.841,6.209-13.841,13.841c0,3.195,1.149,6.12,2.924,8.519c-8.238,4.608-10.9,11.705-11.697,15.878
	C6.653,51.55,3.195,43.747,3.195,35.229L3.195,35.229z M24.134,32.83c0-5.856,4.789-10.646,10.646-10.646
	c5.857,0,10.646,4.79,10.646,10.646s-4.789,10.646-10.646,10.646C28.923,43.476,24.134,38.687,24.134,32.83L24.134,32.83z
	 M15.081,59.889c0.181-2.571,1.594-11.271,11.18-16.15c2.399,1.865,5.323,2.925,8.519,2.925s6.21-1.15,8.608-3.016
	c9.496,4.88,10.999,13.398,11.271,16.15c-5.414,4.345-12.33,7.007-19.78,7.007C27.329,66.813,20.495,64.241,15.081,59.889
	L15.081,59.889z M15.081,59.889"/>
</svg>
