<?xml version="1.0" encoding="utf-8"?>
<!-- Generator: Adobe Illustrator 16.0.0, SVG Export Plug-In . SVG Version: 6.00 Build 0)  -->
<!DOCTYPE svg PUBLIC "-//W3C//DTD SVG 1.1//EN" "http://www.w3.org/Graphics/SVG/1.1/DTD/svg11.dtd">
<svg version="1.1" id="Layer_1" xmlns="http://www.w3.org/2000/svg" xmlns:xlink="http://www.w3.org/1999/xlink" x="0px" y="0px"
	 width="70px" height="70px" viewBox="0 0 70 70" enable-background="new 0 0 70 70" xml:space="preserve">
<g>
	<path fill="#3DB5C1" d="M15.742,48.906"/>
</g>
<path fill="#3DB5C1" d="M34.944,0.438c-19.083,0-34.607,15.566-34.607,34.703c0,19.123,15.524,34.701,34.607,34.7
	c19.082,0,34.606-15.577,34.606-34.7C69.551,16.004,54.026,0.438,34.944,0.438L34.944,0.438z M34.944,67.247
	c-17.656,0-32.03-14.401-32.03-32.106c0-17.706,14.374-32.119,32.03-32.119c17.66,0,32.02,14.413,32.02,32.119
	C66.964,52.846,52.604,67.247,34.944,67.247L34.944,67.247z M34.944,67.247"/>
<path fill="#3DB5C1" d="M60.043,46.924"/>
<g>
	<path fill="#3DB5C1" d="M35,27.357c3.61,0,6.548-2.938,6.548-6.548c0-3.611-2.938-6.549-6.548-6.549s-6.548,2.938-6.548,6.549
		C28.452,24.42,31.39,27.357,35,27.357L35,27.357z M35,15.588c2.879,0,5.221,2.343,5.221,5.222S37.879,26.03,35,26.03
		s-5.221-2.342-5.221-5.221S32.121,15.588,35,15.588L35,15.588z M35,15.588"/>
	<g>
		<defs>
			<rect id="SVGID_1_" x="14.206" y="14.15" width="41.588" height="41.699"/>
		</defs>
		<clipPath id="SVGID_2_">
			<use xlink:href="#SVGID_1_"  overflow="visible"/>
		</clipPath>
		<path clip-path="url(#SVGID_2_)" fill="#3DB5C1" d="M35,30.013c5.293,0,9.638,4.131,9.981,9.338H29.644
			c-0.367,0-0.664,0.298-0.664,0.664s0.297,0.664,0.664,0.664h16.023c0.366,0,0.663-0.298,0.663-0.664
			c0-6.247-5.082-11.33-11.33-11.33c-6.247,0-11.329,5.083-11.329,11.33c0,0.366,0.297,0.664,0.663,0.664h2.655
			c0.366,0,0.663-0.298,0.663-0.664s-0.297-0.664-0.663-0.664h-1.97C25.362,34.144,29.708,30.013,35,30.013L35,30.013z M35,30.013"
			/>
		<path clip-path="url(#SVGID_2_)" fill="#3DB5C1" d="M26.63,47.684l-3.64-0.611l-1.707-3.273c-0.114-0.22-0.341-0.356-0.588-0.356
			c-0.248,0-0.475,0.137-0.589,0.356L18.4,47.072l-3.641,0.611c-0.244,0.041-0.445,0.214-0.521,0.449
			c-0.077,0.235-0.016,0.493,0.158,0.67l2.586,2.634l-0.544,3.652c-0.037,0.244,0.066,0.488,0.266,0.634
			c0.2,0.146,0.465,0.168,0.687,0.058l3.305-1.646l3.304,1.646c0.094,0.047,0.195,0.069,0.296,0.069c0.138,0,0.275-0.043,0.39-0.127
			c0.2-0.146,0.304-0.39,0.267-0.635l-0.543-3.651l2.586-2.634c0.173-0.177,0.233-0.435,0.157-0.67S26.874,47.725,26.63,47.684
			L26.63,47.684z M23.229,50.743c-0.146,0.148-0.214,0.356-0.184,0.563l0.405,2.719l-2.46-1.226c-0.187-0.093-0.405-0.093-0.592,0
			l-2.461,1.226l0.405-2.719c0.03-0.206-0.037-0.414-0.183-0.563l-1.926-1.962l2.71-0.455c0.206-0.034,0.383-0.163,0.479-0.348
			l1.271-2.438l1.271,2.438c0.096,0.185,0.273,0.313,0.479,0.348l2.71,0.455L23.229,50.743z M23.229,50.743"/>
		<path clip-path="url(#SVGID_2_)" fill="#3DB5C1" d="M40.936,47.684l-3.641-0.611l-1.706-3.273
			c-0.114-0.22-0.342-0.356-0.589-0.356s-0.474,0.137-0.588,0.356l-1.707,3.273l-3.64,0.611c-0.244,0.041-0.445,0.214-0.521,0.449
			s-0.017,0.493,0.157,0.67l2.586,2.634l-0.544,3.652c-0.036,0.244,0.066,0.488,0.267,0.634s0.465,0.168,0.687,0.058L35,54.134
			l3.304,1.646c0.095,0.047,0.195,0.069,0.297,0.069c0.138,0,0.274-0.043,0.391-0.127c0.199-0.146,0.303-0.39,0.266-0.635
			l-0.544-3.651l2.586-2.634c0.174-0.177,0.235-0.435,0.158-0.67C41.381,47.897,41.18,47.725,40.936,47.684L40.936,47.684z
			 M37.534,50.743c-0.146,0.148-0.214,0.356-0.183,0.563l0.404,2.719l-2.46-1.226c-0.093-0.046-0.194-0.069-0.296-0.069
			s-0.202,0.023-0.295,0.069l-2.461,1.226l0.405-2.719c0.03-0.206-0.037-0.414-0.184-0.563l-1.925-1.962l2.71-0.455
			c0.205-0.034,0.383-0.163,0.479-0.348L35,45.541l1.271,2.438c0.096,0.185,0.273,0.313,0.478,0.348l2.712,0.455L37.534,50.743z
			 M37.534,50.743"/>
		<path clip-path="url(#SVGID_2_)" fill="#3DB5C1" d="M55.762,48.133c-0.077-0.235-0.277-0.408-0.521-0.449L51.6,47.072
			l-1.705-3.273c-0.115-0.22-0.343-0.356-0.59-0.356c-0.246,0-0.474,0.137-0.588,0.356l-1.706,3.273l-3.64,0.611
			c-0.244,0.041-0.445,0.214-0.522,0.449c-0.076,0.235-0.016,0.493,0.158,0.67l2.586,2.634l-0.545,3.652
			c-0.035,0.244,0.067,0.488,0.268,0.634c0.199,0.146,0.464,0.168,0.686,0.058l3.304-1.646l3.305,1.646
			c0.094,0.047,0.195,0.069,0.296,0.069c0.138,0,0.274-0.043,0.39-0.127c0.2-0.146,0.303-0.39,0.268-0.635l-0.545-3.651l2.586-2.634
			C55.777,48.626,55.838,48.368,55.762,48.133L55.762,48.133z M51.839,50.743c-0.146,0.148-0.213,0.356-0.182,0.563l0.404,2.719
			l-2.46-1.226c-0.094-0.046-0.195-0.069-0.296-0.069c-0.102,0-0.203,0.023-0.297,0.069l-2.459,1.226l0.404-2.719
			c0.031-0.206-0.037-0.414-0.183-0.563l-1.926-1.962l2.711-0.455c0.206-0.034,0.383-0.163,0.479-0.348l1.271-2.438l1.27,2.438
			c0.097,0.185,0.274,0.313,0.479,0.348l2.712,0.455L51.839,50.743z M51.839,50.743"/>
	</g>
	<path fill="#3DB5C1" d="M35,23.818c0.87,0,1.698-0.379,2.271-1.037c0.24-0.277,0.212-0.696-0.065-0.937
		c-0.276-0.241-0.694-0.211-0.937,0.065c-0.319,0.369-0.783,0.581-1.269,0.581s-0.948-0.212-1.27-0.581
		c-0.239-0.276-0.658-0.306-0.936-0.065c-0.277,0.24-0.307,0.66-0.065,0.937C33.303,23.439,34.131,23.818,35,23.818L35,23.818z
		 M35,23.818"/>
</g>
</svg>
