<?xml version="1.0" encoding="utf-8"?>
<!-- Generator: Adobe Illustrator 16.0.0, SVG Export Plug-In . SVG Version: 6.00 Build 0)  -->
<!DOCTYPE svg PUBLIC "-//W3C//DTD SVG 1.1//EN" "http://www.w3.org/Graphics/SVG/1.1/DTD/svg11.dtd">
<svg version="1.1" id="Layer_1" xmlns="http://www.w3.org/2000/svg" xmlns:xlink="http://www.w3.org/1999/xlink" x="0px" y="0px"
	 width="70px" height="70px" viewBox="0 0 70 70" enable-background="new 0 0 70 70" xml:space="preserve">
<g>
	<path fill="#3DB5C1" d="M15.742,48.906"/>
</g>
<path fill="#3DB5C1" d="M34.944,0.438c-19.083,0-34.607,15.566-34.607,34.703c0,19.123,15.524,34.701,34.607,34.7
	c19.082,0,34.606-15.577,34.606-34.7C69.551,16.004,54.026,0.438,34.944,0.438L34.944,0.438z M34.944,67.247
	c-17.656,0-32.03-14.401-32.03-32.106c0-17.706,14.374-32.119,32.03-32.119c17.66,0,32.02,14.413,32.02,32.119
	C66.964,52.846,52.604,67.247,34.944,67.247L34.944,67.247z M34.944,67.247"/>
<path fill="#FFFFFF" d="M60.043,45.957v-2.638c0-0.552-0.245-1.084-0.681-1.435c-2.38-1.956-4.943-3.253-5.475-3.509
	c-0.064-0.031-0.096-0.085-0.096-0.159v-3.711c0.468-0.308,0.775-0.84,0.775-1.445v-3.849c0-1.914-1.552-3.466-3.466-3.466h-0.829
	c-1.913,0-3.465,1.552-3.465,3.466v3.849c0,0.605,0.308,1.127,0.774,1.445v3.711c0,0.063-0.03,0.128-0.095,0.159
	c-0.521,0.256-3.095,1.553-5.475,3.509c-0.426,0.351-0.682,0.883-0.682,1.435v2.638"/>
<path fill="#3DB5C1" d="M19.962,20.642c3.838-3.922,8.974-6.124,14.459-6.188c5.433-0.063,10.579,1.978,14.48,5.742l-2.17,0.021
	c-0.53,0.01-0.956,0.447-0.956,0.978c0.011,0.532,0.436,0.957,0.967,0.957h0.012l4.497-0.052c0.532-0.011,0.957-0.447,0.957-0.979
	l-0.053-4.497c-0.012-0.532-0.447-0.946-0.979-0.958c-0.532,0.011-0.958,0.447-0.958,0.979l0.022,2.18
	c-4.264-4.125-9.888-6.358-15.842-6.294c-6.007,0.063-11.619,2.466-15.809,6.762c-0.372,0.383-0.361,0.988,0.011,1.36
	C18.974,21.036,19.59,21.025,19.962,20.642L19.962,20.642z M19.962,20.642"/>
<path fill="#3DB5C1" d="M19.08,53.356l-0.021-2.18c4.22,4.071,9.737,6.294,15.596,6.294h0.266
	c6.007-0.063,11.619-2.467,15.809-6.762c0.372-0.383,0.361-0.989-0.011-1.361c-0.382-0.372-0.988-0.361-1.36,0.011
	c-3.839,3.923-8.974,6.124-14.459,6.188c-5.443,0.064-10.578-1.978-14.479-5.741l2.168-0.021c0.532-0.01,0.957-0.446,0.957-0.978
	c-0.011-0.531-0.436-0.957-0.968-0.957h-0.011l-4.497,0.054c-0.255,0-0.499,0.105-0.68,0.286c-0.181,0.182-0.276,0.426-0.276,0.681
	l0.053,4.497c0.011,0.532,0.437,0.957,0.968,0.957h0.011C18.665,54.323,19.091,53.888,19.08,53.356L19.08,53.356z M19.08,53.356"/>
<path fill="#3DB5C1" d="M17.135,34.505c0-0.318-0.16-0.627-0.426-0.797c-0.213-0.148-0.34-0.383-0.34-0.638v-3.849
	c0-1.382,1.116-2.499,2.498-2.499h0.829c1.383,0,2.498,1.117,2.498,2.499v3.849c0,0.255-0.128,0.5-0.34,0.638
	c-0.266,0.181-0.425,0.479-0.425,0.797v3.711c0,0.425,0.244,0.829,0.637,1.021c0.479,0.233,2.978,1.499,5.285,3.392
	c0.201,0.17,0.329,0.425,0.329,0.69v2.638c0,0.531,0.437,0.967,0.968,0.967s0.967-0.436,0.967-0.967v-2.638
	c0-0.85-0.372-1.647-1.031-2.179c-2.041-1.681-4.23-2.892-5.22-3.402v-2.775c0.489-0.5,0.776-1.17,0.776-1.893v-3.849
	c0-2.445-1.988-4.423-4.423-4.423h-0.829c-2.445,0-4.423,1.988-4.423,4.423v3.849c0,0.712,0.287,1.393,0.775,1.893v2.775
	c-0.978,0.511-3.167,1.722-5.219,3.402c-0.66,0.542-1.032,1.329-1.032,2.179v2.638c0,0.531,0.437,0.967,0.968,0.967
	s0.968-0.436,0.968-0.967v-2.638c0-0.276,0.116-0.521,0.329-0.69c2.307-1.893,4.806-3.158,5.284-3.392
	c0.383-0.191,0.638-0.585,0.638-1.021v-3.711H17.135z M17.135,34.505"/>
<path fill="#3DB5C1" d="M60.043,46.924c0.531,0,0.967-0.436,0.967-0.967v-2.638c0-0.85-0.371-1.647-1.03-2.179
	c-2.041-1.681-4.231-2.892-5.221-3.402v-2.775c0.489-0.5,0.776-1.17,0.776-1.893v-3.849c0-2.445-1.988-4.423-4.422-4.423h-0.83
	c-2.445,0-4.423,1.988-4.423,4.423v3.849c0,0.712,0.287,1.393,0.777,1.893v2.775c-0.979,0.511-3.169,1.722-5.222,3.402
	c-0.659,0.542-1.031,1.329-1.031,2.179v2.638c0,0.531,0.437,0.967,0.968,0.967c0.532,0,0.968-0.436,0.968-0.967v-2.638
	c0-0.276,0.117-0.521,0.329-0.69c2.308-1.893,4.806-3.158,5.284-3.392c0.383-0.191,0.638-0.585,0.638-1.021v-3.711
	c0-0.318-0.159-0.627-0.426-0.797c-0.212-0.148-0.34-0.383-0.34-0.638v-3.849c0-1.382,1.117-2.499,2.499-2.499h0.829
	c1.382,0,2.498,1.117,2.498,2.499v3.849c0,0.255-0.127,0.5-0.34,0.638c-0.265,0.181-0.425,0.479-0.425,0.797v3.711
	c0,0.425,0.245,0.829,0.638,1.021c0.479,0.233,2.977,1.499,5.283,3.392c0.202,0.17,0.33,0.425,0.33,0.69v2.638
	C59.087,46.488,59.512,46.924,60.043,46.924L60.043,46.924z M60.043,46.924"/>
</svg>
